<svg width="22" height="23" viewBox="0 0 22 23" fill="none" xmlns="http://www.w3.org/2000/svg">
<path d="M20.1666 7.58354V15.047C20.1666 15.808 19.8755 16.5401 19.3529 17.0933C18.8303 17.6464 18.1158 17.9785 17.3561 18.0216L17.1874 18.0262H4.81242C4.05146 18.0263 3.31933 17.7351 2.76621 17.2125C2.21309 16.6899 1.88092 15.9754 1.83784 15.2157L1.83325 15.047V7.58354L10.6809 12.2182C10.7793 12.2698 10.8888 12.2967 10.9999 12.2967C11.111 12.2967 11.2205 12.2698 11.3189 12.2182L20.1666 7.58354ZM4.81242 3.35954H17.1874C17.9259 3.35945 18.638 3.63362 19.1858 4.12887C19.7335 4.62412 20.0778 5.30515 20.1519 6.03987L10.9999 10.834L1.84792 6.03987C1.91898 5.33433 2.23938 4.67727 2.75152 4.1868C3.26366 3.69633 3.93396 3.40463 4.64192 3.36412L4.81242 3.35954H17.1874H4.81242Z" fill="#959AC4"/>
</svg>
