<svg width="22" height="23" viewBox="0 0 22 23" fill="none" xmlns="http://www.w3.org/2000/svg">
<path d="M19.8993 15.3149C19.7501 16.476 19.1832 17.5431 18.3045 18.3168C17.4259 19.0904 16.2957 19.5178 15.125 19.519C8.30139 19.519 2.75 13.9676 2.75 7.14396C2.75117 5.97327 3.17851 4.84304 3.95218 3.96442C4.72585 3.08581 5.79292 2.5189 6.95406 2.36962C7.24955 2.33384 7.54867 2.39475 7.80665 2.54321C8.06462 2.69167 8.26757 2.9197 8.38509 3.19316L10.1118 7.22173C10.2013 7.43013 10.2378 7.65747 10.218 7.88343C10.1982 8.10938 10.1227 8.32691 9.99831 8.51655L8.56874 10.7009L8.56857 10.7011C9.2141 12.0136 10.2787 13.0735 11.594 13.7132L13.7461 12.2786C13.9363 12.1513 14.1553 12.0737 14.3831 12.0528C14.611 12.0318 14.8404 12.0683 15.0506 12.1588L19.0757 13.8838C19.3491 14.0014 19.5771 14.2043 19.7256 14.4623C19.8741 14.7202 19.935 15.0193 19.8993 15.3148V15.3149Z" fill="#959AC4"/>
</svg>
