<svg width="200" height="200" viewBox="0 0 200 200" fill="none" xmlns="http://www.w3.org/2000/svg">
<path d="M195.833 99.8333C195.833 157.333 153.763 195.667 101.859 195.667C59.6733 195.667 25.6333 173.29 13.75 138.167" stroke="#495082" stroke-width="7" stroke-linecap="round" stroke-linejoin="round"/>
<path d="M4.16675 99.8333C4.16675 42.3333 46.2376 4 98.1409 4C140.336 4 174.367 26.3771 186.25 61.5" stroke="#495082" stroke-width="7" stroke-linecap="round" stroke-linejoin="round"/>
<path d="M52.0834 147.75L13.7501 138.167L4.16675 176.5" stroke="#495082" stroke-width="7" stroke-linecap="round" stroke-linejoin="round"/>
<path d="M147.917 51.9166L186.25 61.5L195.833 23.1666" stroke="#495082" stroke-width="7" stroke-linecap="round" stroke-linejoin="round"/>
<mask id="mask0_26_47" style="mask-type:alpha" maskUnits="userSpaceOnUse" x="9" y="10" width="183" height="183">
<circle cx="100.5" cy="101.5" r="91.5" fill="#F3F4FB"/>
</mask>
<g mask="url(#mask0_26_47)">
<path fill-rule="evenodd" clip-rule="evenodd" d="M23.4366 98.5123C23.1379 97.232 15.7294 84.5664 19.5081 77.0151C20.8274 74.38 24.023 80.9309 24.0311 80.7922C24.2596 76.8759 23.8769 73.7364 26.2973 71.1946C28.9343 68.4238 30.288 74.0167 30.2946 73.995C31.5248 70.479 32.5054 66.3361 36.1668 67.6247C37.9788 68.2614 37.3219 70.9784 37.3219 70.9784C37.3219 70.9784 39.7183 68.2201 41.2782 67.8815C53.1424 65.3042 45.9082 104.216 67.8226 105.04C74.4291 105.289 77.0122 114.492 77.6367 117.035C80.66 129.345 80.5938 140.225 74.507 142.399C74.4026 142.436 74.2971 142.467 74.1923 142.502C74.3267 142.702 74.4039 142.934 74.4158 143.175C74.4363 143.3 74.4295 143.429 74.3959 143.551C74.3623 143.674 74.3026 143.788 74.221 143.886C74.1393 143.984 74.0375 144.063 73.9225 144.118C73.8075 144.173 73.6819 144.203 73.5542 144.206C69.6578 143.966 65.7822 144.386 61.8564 143.566C61.2983 143.45 57.0657 142.061 56.1754 141.436C55.9676 141.299 55.7976 141.111 55.681 140.891C55.5644 140.671 55.5048 140.426 55.5076 140.177C55.5114 140.033 55.5399 139.891 55.592 139.757C51.4358 138.107 47.6499 135.651 44.4534 132.534C43.4007 131.502 42.352 130.441 41.343 129.348C41.1453 129.13 40.9614 128.9 40.7922 128.66C40.6975 128.493 40.6432 128.307 40.6335 128.116C40.6238 127.925 40.6591 127.735 40.7365 127.56C40.7467 127.537 40.7596 127.511 40.7733 127.485C37.6505 124.674 34.6844 121.695 31.8883 118.561C30.8349 117.321 29.264 115.596 28.7474 113.893C28.7007 113.669 28.6727 113.442 28.6638 113.213C28.6624 113.033 28.7182 112.858 28.8232 112.712C28.9282 112.565 29.077 112.456 29.2482 112.399C28.233 110.743 27.3098 109.032 26.483 107.275C25.1609 104.469 24.1398 101.532 23.4366 98.5123V98.5123Z" fill="#BD6566"/>
<path fill-rule="evenodd" clip-rule="evenodd" d="M180.265 145.293C183.875 137.509 181.753 134.88 178.828 136.271C178.768 136.298 181.958 131.495 178.827 131.976C171.579 133.091 149.426 138.215 139.062 115.301C135.937 108.393 133.295 111.003 132.69 113.108C131.912 115.763 131.403 118.489 131.168 121.246C131.01 122.28 130.879 123.325 130.773 124.381C130.646 125.69 130.604 127.005 130.646 128.319C130.666 128.963 130.737 129.6 130.81 130.241C130.823 130.349 130.834 130.602 130.854 130.686C130.88 130.797 130.923 130.902 130.982 130.999C131.054 131.145 131.164 131.267 131.302 131.353C131.439 131.439 131.598 131.485 131.76 131.486C131.888 132.154 132.032 132.823 132.191 133.494C132.319 135.639 132.661 137.767 133.212 139.844C133.49 140.946 133.799 142.062 134.161 143.141C134.3 143.553 134.457 143.956 134.602 144.365C134.648 144.499 134.722 144.822 134.768 144.924C134.814 145.027 134.876 145.123 134.95 145.208C135.067 145.372 135.241 145.488 135.438 145.533C135.635 145.579 135.842 145.551 136.02 145.455C136.041 145.445 136.066 145.431 136.094 145.416C137.051 148.171 138.456 150.75 140.254 153.05C140.943 153.967 141.722 154.813 142.58 155.576C143 155.994 143.465 156.364 143.966 156.681C144.108 156.759 144.268 156.794 144.429 156.781C144.59 156.769 144.744 156.71 144.871 156.611C144.974 156.536 145.058 156.439 145.118 156.326C145.177 156.214 145.209 156.089 145.213 155.963C145.222 155.348 145.066 154.742 144.761 154.208C147.814 156.014 151.123 157.353 154.576 158.181C159.109 159.363 167.475 158.662 170.02 157.991C173.019 157.199 178.412 156.123 183.976 146.517C185.241 144.333 180.221 145.388 180.265 145.293Z" fill="url(#paint0_linear_26_47)"/>
<path d="M148.473 83.7403C147.487 78.0984 146.367 72.5132 145.038 66.9156C138.809 40.6924 120.037 30.4422 101.428 32.6692C75.9469 35.7186 62.6044 51.8474 62.9162 84.9738C62.5892 87.4456 62.0195 89.9008 61.6666 92.352C61.5184 93.3813 61.3569 94.4024 61.2811 95.4465C61.2168 96.3361 61.2038 96.7556 61.2074 96.9139C61.2087 97.0622 61.2315 97.2096 61.2752 97.3514C61.4075 97.7714 60.3406 98.393 60.4955 98.4717C60.7304 98.5937 54.9674 110.973 62.1311 108.3C57.6441 118.098 60.0358 126.517 62.3949 120.822C60.5792 145.23 64.0046 138.629 63.9276 138.645C63.9239 137.697 64.9233 146.372 63.2622 150.259C63.1408 151.055 63.0609 151.859 62.9741 152.662C62.9768 152.64 62.9872 152.574 62.9872 152.574C62.9872 152.574 62.9789 153.213 62.9998 153.284C63.0574 153.514 63.1922 153.718 63.382 153.861C63.4825 153.942 63.6033 153.994 63.7314 154.012C63.8595 154.03 63.99 154.012 64.1088 153.961C64.282 153.895 64.4287 153.774 64.5267 153.617L64.5821 153.535C64.0826 155.684 63.5331 157.82 63.0011 159.969C62.6127 161.535 62.2531 163.111 61.888 164.684L61.5622 166.094C61.5421 166.145 61.3669 166.592 61.3218 166.761C61.2611 166.984 61.2477 167.217 61.2824 167.444C61.3005 167.593 61.3488 167.736 61.4242 167.864C61.4997 167.993 61.6007 168.106 61.7212 168.195C61.8314 168.281 61.964 168.335 62.1035 168.35C62.2431 168.364 62.384 168.34 62.51 168.278C62.8498 168.129 63.1629 167.926 63.4366 167.676C62.6528 170.714 62.046 193.527 60.8975 197.492C59.9589 201.947 62.9021 200.288 62.9021 200.288L62.3165 203.569L102.362 204.083L102.211 202.531C105.836 205.79 105.161 201.646 105.161 201.646L107.109 189.786L114.498 189.68L116.89 200.395C115.984 204.403 118.646 204.126 118.646 204.126L159.164 204.998L158.704 201.412C160.344 201.594 160.664 200.1 160.659 198.922C160.643 198.146 160.494 197.379 160.221 196.653C159.288 193.883 158.64 191.026 158.286 188.125C161.333 189.902 160.583 185.494 160.575 185.44C160.306 183.477 159.844 181.559 159.55 179.602C159.098 176.584 158.667 173.553 158.208 170.531C157.634 147.985 154.111 124.416 151.874 106.85C152.069 107.062 152.29 107.25 152.531 107.409C152.749 107.57 153.01 107.662 153.281 107.673C153.552 107.685 153.82 107.615 154.051 107.472C154.293 107.262 154.467 106.985 154.551 106.676C154.635 106.368 154.625 106.041 154.523 105.738C154.096 104.316 153.556 102.93 152.906 101.593C151.991 99.6036 151.146 97.6123 150.388 95.5771C150.654 95.7596 150.982 95.8301 151.299 95.7734C151.617 95.7166 151.9 95.5371 152.085 95.274C152.282 95.0114 152.401 94.6993 152.43 94.3728C152.462 93.7768 152.384 93.1799 152.2 92.612C151.646 91.0082 150.994 89.4395 150.249 87.9145C149.672 86.5176 149.064 85.1327 148.473 83.7403ZM65.0486 159.244C64.8809 160.015 64.6989 160.774 64.4965 161.498L64.4601 161.629C64.5425 161.286 64.6259 160.943 64.7105 160.6C64.8221 160.147 64.9348 159.695 65.0486 159.244Z" fill="url(#paint1_linear_26_47)"/>
<mask id="mask1_26_47" style="mask-type:alpha" maskUnits="userSpaceOnUse" x="58" y="32" width="103" height="173">
<path d="M148.473 83.7403C147.487 78.0984 146.366 72.5132 145.037 66.9156C138.809 40.6924 120.037 30.4422 101.428 32.6692C75.9468 35.7186 62.6043 51.8474 62.9161 84.9738C62.5891 87.4456 62.0194 89.9008 61.6665 92.352C61.5182 93.3813 61.3567 94.4024 61.281 95.4465C61.2166 96.3361 61.2037 96.7556 61.2073 96.9139C61.2086 97.0622 61.2314 97.2096 61.2751 97.3514C61.4073 97.7714 60.3405 98.393 60.4953 98.4717C60.7303 98.5937 54.9673 110.973 62.131 108.3C57.644 118.098 60.0357 126.517 62.3948 120.822C60.5791 145.23 64.0045 138.629 63.9275 138.645C63.9238 137.697 64.9232 146.372 63.2621 150.259C63.1407 151.055 63.0608 151.859 62.974 152.662C62.9767 152.64 62.9871 152.574 62.9871 152.574C62.9871 152.574 62.9788 153.213 62.9997 153.284C63.0573 153.514 63.1921 153.718 63.3818 153.861C63.4824 153.942 63.6032 153.994 63.7313 154.012C63.8594 154.03 63.9899 154.012 64.1087 153.961C64.2819 153.895 64.4286 153.774 64.5265 153.617L64.582 153.535C64.0825 155.684 63.533 157.82 63.001 159.969C62.6126 161.535 62.253 163.111 61.8879 164.684L61.5621 166.094C61.542 166.145 61.3668 166.592 61.3217 166.761C61.261 166.984 61.2476 167.217 61.2823 167.444C61.3004 167.593 61.3487 167.736 61.4241 167.864C61.4996 167.993 61.6006 168.106 61.7211 168.195C61.8313 168.281 61.9638 168.335 62.1034 168.35C62.243 168.364 62.3839 168.34 62.5099 168.278C62.8497 168.129 63.1627 167.926 63.4364 167.676C62.6527 170.714 62.0459 193.527 60.8974 197.492C59.9587 201.947 62.902 200.288 62.902 200.288L62.3164 203.569L102.362 204.083L102.211 202.531C105.836 205.79 105.161 201.646 105.161 201.646L107.109 189.786L114.498 189.68L116.89 200.395C115.984 204.403 118.646 204.126 118.646 204.126L159.164 204.998L158.704 201.412C160.343 201.594 160.664 200.1 160.659 198.922C160.642 198.146 160.494 197.379 160.22 196.653C159.288 193.883 158.64 191.026 158.286 188.125C161.333 189.902 160.583 185.494 160.575 185.44C160.306 183.477 159.844 181.559 159.55 179.602C159.098 176.584 158.667 173.553 158.208 170.531C157.634 147.985 154.11 124.416 151.874 106.85C152.069 107.062 152.29 107.25 152.531 107.409C152.749 107.57 153.01 107.662 153.281 107.673C153.552 107.685 153.82 107.615 154.051 107.472C154.293 107.262 154.467 106.985 154.551 106.676C154.635 106.368 154.625 106.041 154.523 105.738C154.096 104.316 153.555 102.93 152.906 101.593C151.991 99.6036 151.146 97.6123 150.388 95.5771C150.654 95.7596 150.981 95.8301 151.299 95.7734C151.617 95.7166 151.899 95.5371 152.085 95.274C152.282 95.0114 152.401 94.6993 152.429 94.3728C152.462 93.7768 152.384 93.1799 152.2 92.612C151.646 91.0082 150.994 89.4395 150.249 87.9145C149.671 86.5176 149.064 85.1327 148.473 83.7403ZM65.0485 159.244C64.8808 160.015 64.6988 160.774 64.4964 161.498L64.46 161.629C64.5423 161.286 64.6258 160.943 64.7104 160.6C64.822 160.147 64.9347 159.695 65.0485 159.244Z" fill="url(#paint2_linear_26_47)"/>
</mask>
<g mask="url(#mask1_26_47)">
<path fill-rule="evenodd" clip-rule="evenodd" d="M158.28 152.713C158.28 152.713 160.6 171.766 154.325 167.889C148.05 164.009 145.752 160.634 145.752 160.634C145.752 160.634 146.339 172.576 138.926 171.273C131.511 169.968 130.314 163.938 130.314 163.938C130.314 163.938 129.88 175.648 121.815 173.427C113.751 171.206 111.372 162.331 111.372 162.331C111.372 162.331 109.912 172.184 103.235 168.479C96.5609 164.776 97.6396 160.837 97.6396 160.837C97.6396 160.837 94.633 172.707 86.0796 169.672C79.329 167.277 79.7799 161.328 79.7799 161.328C79.7799 161.328 74.842 181.375 66.1073 163.149C64.6461 165.411 63.4363 167.676 63.4363 167.676C60.7672 173.287 48.604 205.962 48.8615 206.897C48.3536 205.067 162.338 214.152 166.519 214.373C166.519 214.373 168.001 162.398 158.28 152.713Z" fill="#723A48"/>
</g>
<path fill-rule="evenodd" clip-rule="evenodd" d="M110.877 76.9371C110.877 76.9371 114.206 68.2741 120.416 66.3811C126.626 64.488 119.548 70.7368 119.548 70.7368C119.548 70.7368 129.544 63.6864 136.684 72.9516C142 79.9267 141.406 95.8038 130.114 101.454C130.114 101.454 135.656 105.406 128.614 103.576C125.822 102.851 112.543 101.01 112.543 101.01C112.543 101.01 105.397 108.304 96.9233 108.076C96.9233 108.076 92.2285 109.312 94.5099 106.951C94.5099 106.951 79.5751 106.613 75.2484 90.1907C70.6013 72.6166 87.7527 66.6251 97.4845 71.9478C97.4845 71.9478 90.7012 68.3368 93.2831 67.8382C95.8662 67.3394 102.542 71.4661 104.939 74.2755C104.939 74.2755 99.2714 69.4182 100.491 67.2608C101.711 65.1047 108.556 72.5768 110.877 76.9371Z" fill="#E78E78"/>
<path d="M98.9403 106.226C97.4936 98.481 103.267 90.9161 111.835 89.3288C120.404 87.7415 128.523 92.7329 129.969 100.477C131.416 108.222 125.643 115.787 117.074 117.374C108.506 118.961 100.387 113.97 98.9403 106.226Z" fill="#9E5261"/>
<path fill-rule="evenodd" clip-rule="evenodd" d="M65.0485 159.244C64.8807 160.016 64.6988 160.775 64.4963 161.498L64.46 161.629C64.5423 161.286 64.6258 160.943 64.7104 160.6C64.822 160.147 64.9347 159.695 65.0485 159.244Z" fill="url(#paint3_linear_26_47)"/>
<path d="M129.707 87.0647C127.319 86.9351 125.493 84.8226 125.628 82.3462C125.764 79.8699 127.81 77.9674 130.198 78.0969C132.586 78.2264 134.412 80.3389 134.277 82.8153C134.141 85.2917 132.095 87.1942 129.707 87.0647Z" fill="#4F2832"/>
<path fill-rule="evenodd" clip-rule="evenodd" d="M115.298 86.587C115.298 86.587 110.841 89.1343 110.34 91.4981C109.766 94.2062 113.164 94.8363 116.154 94.474C119.146 94.1115 122.052 92.6592 121.18 90.1848C120.39 87.9403 115.298 86.587 115.298 86.587Z" fill="#4F2832"/>
<path d="M96.4179 91.098C94.0298 90.9685 92.2036 88.8559 92.3391 86.3796C92.4745 83.9032 94.5203 82.0007 96.9084 82.1302C99.2966 82.2597 101.123 84.3722 100.987 86.8486C100.852 89.325 98.8061 91.2275 96.4179 91.098Z" fill="#4F2832"/>
<path fill-rule="evenodd" clip-rule="evenodd" d="M125.175 96.9092L128.673 100.972L124.108 102.556L125.175 96.9092Z" fill="#FFFDF0"/>
<path fill-rule="evenodd" clip-rule="evenodd" d="M109.029 98.7045L110.599 103.924L105.822 103.384L109.029 98.7045Z" fill="#FFFDF0"/>
<path fill-rule="evenodd" clip-rule="evenodd" d="M78.9819 97.2861C78.8443 98.3487 78.4203 99.3543 77.755 100.196C77.5656 100.416 77.3293 100.59 77.0634 100.706C76.7975 100.823 76.5087 100.878 76.2184 100.869C75.7872 100.848 75.373 100.695 75.032 100.431C74.7271 100.205 74.4649 99.927 74.2575 99.6098C73.4601 98.2384 73.059 96.6741 73.0986 95.0899C73.0883 95.0025 73.1129 94.9147 73.1671 94.8452C73.2213 94.7758 73.3006 94.7303 73.3881 94.7186C73.4315 94.7149 73.4752 94.7199 73.5166 94.7333C73.558 94.7467 73.5963 94.7681 73.6293 94.7964C73.6623 94.8247 73.6893 94.8592 73.7087 94.898C73.7282 94.9368 73.7396 94.9791 73.7425 95.0223C73.9675 96.3627 74.5285 97.6249 75.3736 98.6919C75.5246 98.8748 75.6947 99.0412 75.881 99.1884C76.0139 99.3091 76.1734 99.3968 76.3468 99.4445C76.5176 99.4679 76.6915 99.4476 76.8522 99.3854C77.0129 99.3232 77.1551 99.2213 77.2651 99.0891C77.7915 98.5161 78.2021 97.8475 78.4746 97.1198C78.484 97.0858 78.5002 97.0541 78.5222 97.0264C78.5442 96.9988 78.5715 96.9758 78.6025 96.9589C78.6336 96.9419 78.6677 96.9314 78.703 96.9278C78.7382 96.9243 78.7738 96.9278 78.8076 96.9382C78.8762 96.9625 78.9327 97.0123 78.9652 97.0772C78.9976 97.142 79.0036 97.2169 78.9819 97.2861Z" fill="#693545"/>
<path fill-rule="evenodd" clip-rule="evenodd" d="M143.803 82.0403C144.581 83.219 145.067 84.5654 145.219 85.968C145.239 86.3187 145.201 86.6703 145.106 87.0085C145.003 87.4126 144.78 87.7764 144.465 88.0517C144.258 88.2323 144.01 88.3608 143.742 88.4263C143.474 88.4919 143.194 88.4927 142.926 88.4285C142.015 88.161 141.194 87.6522 140.55 86.9563C140.48 86.9008 140.434 86.8209 140.422 86.7329C140.409 86.6449 140.43 86.5554 140.481 86.4825C140.505 86.4469 140.536 86.4167 140.573 86.3936C140.609 86.3705 140.649 86.355 140.692 86.3482C140.734 86.3414 140.778 86.3433 140.819 86.3539C140.861 86.3645 140.9 86.3835 140.934 86.4098C141.496 86.7773 142.122 87.0357 142.78 87.1712C142.912 87.2076 143.052 87.2086 143.184 87.174C143.317 87.1394 143.438 87.0704 143.535 86.9741C143.622 86.8552 143.681 86.7184 143.708 86.5737C143.765 86.3661 143.804 86.1537 143.824 85.9392C143.911 84.7007 143.742 83.4574 143.326 82.287C143.295 82.2212 143.29 82.1461 143.312 82.0768C143.335 82.0076 143.383 81.9493 143.446 81.9138C143.478 81.8978 143.512 81.8883 143.548 81.886C143.583 81.8838 143.619 81.8887 143.652 81.9005C143.685 81.9124 143.716 81.9309 143.742 81.9549C143.768 81.9789 143.788 82.008 143.803 82.0403V82.0403Z" fill="#693545"/>
<path fill-rule="evenodd" clip-rule="evenodd" d="M137.834 140.589C138.613 141.768 139.098 143.114 139.25 144.517C139.271 144.867 139.233 145.219 139.137 145.557C139.034 145.961 138.811 146.325 138.497 146.6C138.289 146.781 138.041 146.91 137.773 146.975C137.506 147.041 137.226 147.041 136.958 146.977C136.047 146.71 135.225 146.201 134.581 145.505C134.512 145.449 134.466 145.37 134.453 145.282C134.44 145.194 134.462 145.104 134.513 145.031C134.537 144.996 134.568 144.965 134.604 144.942C134.64 144.919 134.681 144.904 134.723 144.897C134.766 144.89 134.809 144.892 134.851 144.903C134.893 144.913 134.932 144.932 134.966 144.958C135.527 145.326 136.153 145.584 136.811 145.72C136.944 145.756 137.083 145.757 137.216 145.723C137.348 145.688 137.469 145.619 137.566 145.523C137.653 145.404 137.712 145.267 137.739 145.122C137.797 144.915 137.835 144.702 137.855 144.488C137.943 143.249 137.773 142.006 137.358 140.836C137.326 140.77 137.322 140.695 137.344 140.626C137.366 140.556 137.414 140.498 137.478 140.463C137.509 140.446 137.544 140.437 137.579 140.435C137.615 140.432 137.65 140.437 137.683 140.449C137.717 140.461 137.747 140.48 137.773 140.504C137.799 140.528 137.82 140.557 137.834 140.589Z" fill="#693545"/>
<path fill-rule="evenodd" clip-rule="evenodd" d="M61.5866 97.431C61.1315 99.0277 60.4657 100.793 59.9482 102.549C59.7829 103.109 59.6413 103.665 59.5116 104.212C59.37 104.747 59.2676 105.292 59.2051 105.842C59.0713 106.888 59.1684 107.613 59.6223 107.943C60.115 108.303 60.8692 108.204 61.8044 107.716C61.8411 107.694 61.8819 107.679 61.9245 107.673C61.9671 107.667 62.0104 107.67 62.0519 107.681C62.0934 107.692 62.1321 107.712 62.1657 107.739C62.1992 107.765 62.2269 107.799 62.2469 107.837C62.2905 107.914 62.3028 108.005 62.2812 108.091C62.2597 108.177 62.2059 108.252 62.1309 108.3C60.9172 109.17 59.8407 109.274 59.0884 108.867C58.312 108.447 57.8198 107.41 57.8297 105.746C57.8501 105.164 57.9249 104.586 58.053 104.018C58.1409 103.65 58.2502 103.288 58.3804 102.934C59.1054 100.941 60.2951 99.0115 61.0903 97.2337C61.1017 97.2002 61.1197 97.1694 61.1433 97.143C61.167 97.1167 61.1957 97.0954 61.2278 97.0804C61.2599 97.0654 61.2947 97.057 61.3302 97.0557C61.3656 97.0544 61.4009 97.0603 61.4341 97.073C61.5009 97.1016 61.5541 97.1548 61.5825 97.2215C61.6109 97.2882 61.6124 97.3632 61.5866 97.431V97.431Z" fill="#693545"/>
<path fill-rule="evenodd" clip-rule="evenodd" d="M82.461 111.185C82.3499 111.17 82.5175 110.88 82.5202 110.788C82.5218 110.636 82.4785 110.488 82.3957 110.361C82.3464 110.283 82.2813 110.216 82.2047 110.165C82.1281 110.113 82.0415 110.078 81.9506 110.062C81.8596 110.045 81.7662 110.048 81.6764 110.069C81.5865 110.091 81.502 110.131 81.4284 110.186C80.992 110.516 80.6131 110.915 80.3067 111.367C80.074 111.714 79.8094 112.039 79.5163 112.337C79.3863 112.468 79.2211 112.559 79.0406 112.599C78.8601 112.639 78.6718 112.626 78.4984 112.562C78.2949 112.491 78.1097 112.376 77.9561 112.225C77.8026 112.074 77.6844 111.891 77.6103 111.689C77.3839 111.17 77.2461 110.617 77.2023 110.053L77.1353 108.899C77.1295 108.753 77.1913 108.445 77.1912 108.3C77.1945 108.196 77.1775 108.093 77.1412 107.996C77.1098 107.906 77.0547 107.826 76.9818 107.764C76.9088 107.702 76.8206 107.661 76.7262 107.645C76.6335 107.625 76.5371 107.63 76.4474 107.661C76.3577 107.692 76.2783 107.747 76.2177 107.819C75.5817 108.641 74.7788 109.319 73.8615 109.81C73.5737 109.931 73.2618 109.985 72.9499 109.966C72.638 109.948 72.3345 109.859 72.0629 109.705C72.0254 109.684 71.984 109.671 71.9411 109.666C71.8983 109.661 71.8549 109.665 71.8137 109.678C71.7725 109.69 71.7343 109.711 71.7014 109.739C71.6685 109.766 71.6416 109.8 71.6224 109.839C71.5806 109.917 71.5705 110.009 71.5941 110.094C71.6176 110.18 71.6731 110.253 71.7492 110.3C72.094 110.529 72.4869 110.676 72.8978 110.73C73.3087 110.784 73.7265 110.743 74.1191 110.611C74.8141 110.358 75.4533 109.974 76.0012 109.479L75.9922 110.131C75.9969 111.018 76.2002 111.892 76.5872 112.691C76.8981 113.305 77.4358 113.775 78.0875 114.003C78.3928 114.118 78.7195 114.164 79.0448 114.139C79.3701 114.115 79.6859 114.019 79.9702 113.86C80.5 113.51 80.9443 113.046 81.2704 112.503C81.3345 113.083 81.5333 113.641 81.851 114.132C81.9891 114.336 82.167 114.51 82.374 114.645C82.581 114.779 82.8131 114.871 83.0563 114.914C83.5091 115.001 83.978 114.937 84.3904 114.731C84.8028 114.526 85.1357 114.191 85.3374 113.778C85.859 112.72 86.1961 111.582 86.3342 110.412C86.3503 110.341 86.3382 110.267 86.3005 110.205C86.2627 110.144 86.2023 110.099 86.1319 110.081C86.0972 110.074 86.0614 110.073 86.0266 110.08C85.9918 110.087 85.9587 110.101 85.9294 110.121C85.9 110.141 85.8749 110.166 85.8555 110.196C85.8361 110.225 85.8229 110.258 85.8165 110.293C85.6168 111.354 85.2333 112.373 84.683 113.304C84.5466 113.545 84.3332 113.735 84.0765 113.842C83.8199 113.949 83.5346 113.968 83.2658 113.896C83.1252 113.852 82.9971 113.774 82.892 113.671C82.7869 113.568 82.7078 113.441 82.661 113.302C82.5286 112.937 82.4613 112.552 82.462 112.164L82.461 111.185ZM82.461 111.185C82.4726 111.186 82.4612 111.161 82.4617 111.152L82.461 111.185ZM81.1903 111.019C81.102 110.887 81.0509 110.756 81.1916 110.769C81.2676 110.774 81.2261 110.903 81.1903 111.019H81.1903Z" fill="#693545"/>
<path fill-rule="evenodd" clip-rule="evenodd" d="M145.334 102.994C145.58 103.156 145.83 103.313 146.085 103.458C146.648 103.791 147.256 104.041 147.892 104.199C149.186 104.494 149.99 104.135 150.386 103.484C150.58 103.084 150.683 102.645 150.688 102.2C150.693 101.755 150.599 101.315 150.414 100.91L149.699 99.1975C149.475 98.7425 149.234 98.306 148.979 97.8801C148.725 97.4555 148.458 97.0415 148.176 96.6278C148.158 96.5979 148.133 96.5721 148.104 96.5519C148.076 96.5318 148.043 96.5177 148.009 96.5106C147.974 96.5035 147.938 96.5035 147.904 96.5106C147.87 96.5176 147.837 96.5317 147.808 96.5518C147.749 96.595 147.709 96.6587 147.695 96.7302C147.682 96.8016 147.696 96.8756 147.735 96.9372C147.985 97.3577 148.223 97.7768 148.443 98.2069C148.662 98.6326 148.863 99.0681 149.049 99.5203L149.617 101.195C149.73 101.465 149.783 101.756 149.773 102.048C149.763 102.34 149.691 102.626 149.561 102.888C149.325 103.219 148.862 103.235 148.182 103.022C147.666 102.852 147.177 102.61 146.729 102.303C145.978 101.813 145.28 101.225 144.528 100.73C144.437 100.666 144.332 100.626 144.222 100.613C144.112 100.599 144 100.613 143.897 100.653C143.786 100.691 143.687 100.755 143.607 100.84C143.527 100.924 143.47 101.027 143.439 101.139C143.398 101.277 143.39 101.423 143.415 101.564C143.437 101.699 143.546 101.971 143.576 102.104L143.874 103.226C144.158 103.958 144.356 104.72 144.465 105.496C144.485 105.815 144.487 106.131 144.218 106.291C144.057 106.371 143.881 106.419 143.701 106.43C143.521 106.442 143.34 106.417 143.169 106.359C142.465 106.148 141.797 105.833 141.187 105.425L140.258 104.758C140.157 104.678 139.986 104.457 139.886 104.38C139.799 104.309 139.694 104.262 139.583 104.246C139.505 104.234 139.426 104.242 139.352 104.267C139.278 104.292 139.211 104.335 139.157 104.391C139.098 104.447 139.052 104.514 139.022 104.589C138.992 104.664 138.979 104.744 138.983 104.824C139.018 105.948 139.527 107.316 139.313 108.318C139.196 108.867 138.805 109.249 137.908 109.378C137.82 109.39 137.741 109.436 137.687 109.506C137.633 109.576 137.609 109.664 137.62 109.751C137.623 109.794 137.634 109.836 137.654 109.875C137.674 109.914 137.701 109.948 137.734 109.976C137.767 110.004 137.805 110.026 137.847 110.039C137.888 110.052 137.932 110.057 137.975 110.053C139.31 109.946 139.856 109.319 140.077 108.522C140.214 107.687 140.208 106.835 140.059 106.002L140.579 106.428C141.267 106.945 142.028 107.356 142.837 107.65C143.165 107.769 143.514 107.82 143.862 107.801C144.21 107.783 144.551 107.694 144.865 107.541C145.15 107.383 145.391 107.157 145.567 106.883C145.743 106.608 145.847 106.295 145.87 105.97C145.884 104.953 145.702 103.943 145.334 102.994V102.994Z" fill="#693545"/>
<path fill-rule="evenodd" clip-rule="evenodd" d="M115.849 148.374C115.953 148.659 116.063 148.942 116.183 149.218C116.441 149.838 116.783 150.42 117.199 150.947C118.063 151.998 118.911 152.216 119.601 151.944C119.99 151.739 120.328 151.449 120.588 151.095C120.847 150.74 121.023 150.332 121.1 149.9L121.512 148.079C121.595 147.574 121.653 147.073 121.694 146.571C121.735 146.072 121.76 145.573 121.772 145.064C121.776 145.028 121.772 144.992 121.761 144.958C121.751 144.924 121.733 144.892 121.71 144.865C121.687 144.837 121.658 144.815 121.626 144.799C121.594 144.783 121.558 144.774 121.522 144.772C121.487 144.77 121.451 144.775 121.417 144.787C121.383 144.799 121.352 144.818 121.326 144.843C121.299 144.868 121.278 144.897 121.264 144.93C121.25 144.963 121.242 144.998 121.242 145.034C121.2 145.528 121.149 146.013 121.078 146.496C121.009 146.975 120.92 147.45 120.808 147.929L120.301 149.628C120.24 149.909 120.117 150.173 119.941 150.401C119.766 150.63 119.541 150.816 119.284 150.947C118.906 151.064 118.527 150.785 118.106 150.188C117.792 149.727 117.541 149.225 117.36 148.698C117.041 147.834 116.821 146.924 116.505 146.055C116.471 145.947 116.411 145.85 116.331 145.77C116.251 145.69 116.153 145.631 116.046 145.596C115.939 145.557 115.823 145.545 115.711 145.563C115.598 145.581 115.491 145.627 115.402 145.697C115.289 145.783 115.199 145.895 115.139 146.023C115.079 146.144 115.01 146.431 114.957 146.557L114.552 147.642C114.36 148.401 114.081 149.136 113.72 149.832C113.553 150.1 113.373 150.353 113.067 150.313C112.707 150.233 112.392 150.016 112.191 149.707C111.75 149.095 111.397 148.424 111.145 147.713L110.787 146.595C110.752 146.467 110.741 146.183 110.706 146.059C110.678 145.947 110.621 145.844 110.541 145.76C110.488 145.703 110.421 145.66 110.348 145.633C110.274 145.607 110.195 145.598 110.117 145.609C110.039 145.616 109.963 145.642 109.896 145.683C109.829 145.724 109.772 145.78 109.73 145.846C109.114 146.768 108.734 148.184 107.988 148.851C107.58 149.217 107.049 149.277 106.258 148.817C106.222 148.794 106.181 148.779 106.139 148.773C106.096 148.766 106.053 148.769 106.011 148.78C105.969 148.791 105.931 148.81 105.897 148.837C105.863 148.863 105.835 148.896 105.815 148.934C105.77 149.011 105.756 149.102 105.777 149.189C105.797 149.275 105.85 149.351 105.925 149.4C107.052 150.154 107.848 149.995 108.481 149.495C109.074 148.907 109.559 148.22 109.914 147.466L110.084 148.134C110.337 148.981 110.707 149.788 111.185 150.533C111.566 151.134 112.17 151.561 112.865 151.721C113.179 151.775 113.502 151.745 113.802 151.636C114.101 151.526 114.366 151.339 114.569 151.095C115.169 150.279 115.604 149.355 115.849 148.374V148.374Z" fill="#693545"/>
<path fill-rule="evenodd" clip-rule="evenodd" d="M105.021 42.2683C105.275 43.9844 105.619 45.6717 105.951 47.3798C106.092 48.1067 106.245 48.8307 106.361 49.562C106.476 50.2966 106.556 51.0338 106.642 51.7718C106.845 53.5076 107.008 55.2347 107.195 56.9664C107.211 57.0529 107.193 57.1424 107.144 57.2158C107.095 57.2892 107.019 57.3408 106.933 57.3596C106.89 57.367 106.847 57.3657 106.804 57.356C106.762 57.3463 106.722 57.3282 106.687 57.3029C106.652 57.2777 106.623 57.2457 106.6 57.2088C106.578 57.1719 106.563 57.131 106.557 57.0883C106.15 55.3967 105.71 53.7194 105.34 52.0115C105.183 51.2806 105.025 50.5498 104.914 49.8104C104.803 49.0679 104.74 48.3196 104.681 47.5724C104.541 45.8157 104.497 44.0697 104.492 42.313C104.485 42.2412 104.506 42.1695 104.552 42.1135C104.597 42.0574 104.664 42.0217 104.736 42.0142C104.771 42.0118 104.807 42.0165 104.841 42.028C104.874 42.0395 104.905 42.0577 104.932 42.0814C104.958 42.1051 104.98 42.1338 104.995 42.1659C105.01 42.198 105.019 42.2328 105.021 42.2683V42.2683Z" fill="#693545"/>
<path fill-rule="evenodd" clip-rule="evenodd" d="M97.7711 63.5615C97.0623 62.9953 96.3199 62.4721 95.5479 61.9947C95.224 61.7884 94.8982 61.6033 94.5802 61.3978C94.3693 61.2626 94.1632 61.1194 93.9582 60.9732C93.4761 60.6313 93.0123 60.2754 92.4971 59.9569C92.0474 59.678 91.5918 59.4103 91.0967 59.1593C91.0141 59.1269 90.9473 59.0639 90.9102 58.9835C90.8731 58.9032 90.8687 58.8117 90.8978 58.7281C90.9101 58.687 90.9307 58.6487 90.9583 58.6157C90.9859 58.5827 91.0199 58.5555 91.0582 58.5359C91.0966 58.5162 91.1385 58.5045 91.1816 58.5013C91.2246 58.4982 91.2678 58.5038 91.3086 58.5176C92.2721 58.7217 93.2123 59.0225 94.1147 59.4156C94.5088 59.585 94.8865 59.7898 95.2432 60.0274C95.5948 60.2783 95.9244 60.5584 96.2285 60.8648C96.9348 61.577 97.5776 62.3489 98.1497 63.172C98.199 63.2255 98.2261 63.2957 98.2256 63.3684C98.225 63.441 98.1968 63.5108 98.1467 63.5636C98.1226 63.5892 98.0934 63.6096 98.061 63.6234C98.0286 63.6373 97.9937 63.6443 97.9585 63.6441C97.9232 63.6439 97.8884 63.6365 97.8562 63.6223C97.8239 63.6081 97.795 63.5874 97.7711 63.5615Z" fill="#693545"/>
<path fill-rule="evenodd" clip-rule="evenodd" d="M105.344 63.9429C103.841 61.5545 101.95 59.4309 99.7494 57.6586C99.2679 57.2572 98.7764 56.8688 98.2834 56.4792C97.7905 56.0911 97.2942 55.7058 96.7943 55.3234C94.462 53.5377 91.9932 51.8965 89.4646 50.3072C89.3885 50.2614 89.3328 50.1885 89.3088 50.1032C89.2847 50.018 89.2942 49.9268 89.3352 49.8482C89.3542 49.8099 89.3809 49.7758 89.4136 49.748C89.4463 49.7202 89.4842 49.6993 89.5252 49.6865C89.5663 49.6738 89.6095 49.6694 89.6522 49.6738C89.695 49.6781 89.7364 49.691 89.7739 49.7118C92.0099 50.8455 94.2373 51.9654 96.3348 53.2781C97.2579 53.844 98.1481 54.4614 99.0012 55.1275C99.8559 55.8131 100.662 56.5566 101.414 57.3528C103.201 59.2149 104.682 61.3451 105.805 63.6654C105.84 63.7291 105.85 63.8041 105.832 63.8747C105.813 63.9454 105.769 64.0063 105.706 64.0449C105.676 64.0629 105.642 64.0746 105.608 64.0792C105.573 64.0838 105.537 64.0813 105.503 64.0717C105.469 64.0622 105.438 64.0458 105.41 64.0237C105.383 64.0015 105.36 63.9741 105.344 63.9429V63.9429Z" fill="#693545"/>
<path fill-rule="evenodd" clip-rule="evenodd" d="M124.722 58.222C124.667 58.675 124.663 58.8942 124.61 59.1417C124.593 59.2652 124.556 59.3852 124.501 59.4971C124.433 59.5991 124.348 59.6888 124.251 59.7625C124.071 59.9167 123.883 60.0213 123.528 60.2712C123.506 60.3079 123.477 60.3398 123.442 60.3648C123.407 60.3898 123.367 60.4074 123.325 60.4165C123.283 60.4256 123.239 60.4261 123.197 60.4179C123.155 60.4097 123.115 60.3929 123.079 60.3687C123.007 60.317 122.957 60.2398 122.94 60.1529C122.923 60.0659 122.94 59.9757 122.987 59.9007C123.066 59.4612 123.081 59.2422 123.145 59.0082C123.168 58.8899 123.209 58.7759 123.268 58.6704C123.34 58.5739 123.428 58.4899 123.528 58.4216C123.719 58.2676 123.907 58.1704 124.274 57.925C124.292 57.8945 124.316 57.868 124.344 57.847C124.372 57.826 124.404 57.8111 124.439 57.803C124.473 57.7949 124.509 57.794 124.543 57.8002C124.578 57.8064 124.611 57.8196 124.641 57.839C124.701 57.8803 124.743 57.943 124.758 58.0143C124.773 58.0856 124.76 58.1599 124.722 58.222V58.222Z" fill="#693545"/>
<path fill-rule="evenodd" clip-rule="evenodd" d="M120.918 53.908C120.727 54.5561 120.572 55.1745 120.355 55.8123C120.273 56.0789 120.172 56.3396 120.055 56.5927C119.924 56.8355 119.777 57.069 119.615 57.2918C119.24 57.8357 118.84 58.32 118.452 58.8522C118.434 58.8912 118.408 58.926 118.376 58.9548C118.344 58.9835 118.307 59.0054 118.266 59.0193C118.226 59.0331 118.182 59.0386 118.14 59.0353C118.097 59.032 118.055 59.02 118.017 59.0001C117.939 58.9565 117.881 58.8848 117.855 58.8C117.829 58.7151 117.837 58.6235 117.876 58.544C118.064 57.8978 118.224 57.2758 118.449 56.6414C118.536 56.3753 118.641 56.1159 118.766 55.865C118.903 55.6234 119.058 55.3918 119.228 55.1721C119.622 54.6349 120.036 54.1636 120.453 53.643C120.468 53.6114 120.49 53.5834 120.517 53.5605C120.543 53.5376 120.574 53.5204 120.608 53.5099C120.642 53.4995 120.677 53.4959 120.712 53.4996C120.747 53.5032 120.781 53.5139 120.812 53.531C120.874 53.5684 120.92 53.6283 120.94 53.6984C120.96 53.7685 120.952 53.8435 120.918 53.908V53.908Z" fill="#693545"/>
<path fill-rule="evenodd" clip-rule="evenodd" d="M119.353 46.9405C118.001 49.2552 116.898 51.7055 116.063 54.2507C115.868 54.8203 115.683 55.3918 115.495 55.9637C115.307 56.5357 115.119 57.1074 114.932 57.6806C114.048 60.3764 113.329 63.1234 112.781 65.9063C112.775 65.9492 112.762 65.9906 112.74 66.0282C112.719 66.0657 112.69 66.0987 112.656 66.1251C112.621 66.1515 112.582 66.1709 112.54 66.1822C112.498 66.1934 112.455 66.1962 112.412 66.1905C112.325 66.1746 112.247 66.125 112.197 66.0526C112.146 65.9802 112.126 65.8908 112.141 65.8038C112.359 63.402 112.725 61.0158 113.235 58.6584C113.456 57.6443 113.728 56.6419 114.051 55.6551C114.386 54.6741 114.776 53.7124 115.218 52.7743C116.229 50.5984 117.469 48.5358 118.918 46.6212C118.937 46.5915 118.962 46.5661 118.991 46.5464C119.021 46.5267 119.053 46.5132 119.088 46.5068C119.123 46.5003 119.158 46.5011 119.193 46.509C119.227 46.5169 119.259 46.5317 119.288 46.5526C119.346 46.5971 119.385 46.6619 119.397 46.7339C119.409 46.8058 119.393 46.8797 119.353 46.9405V46.9405Z" fill="#693545"/>
<path fill-rule="evenodd" clip-rule="evenodd" d="M130.109 100.314C127.413 101.952 124.237 102.677 121.207 103.282C116.611 104.206 111.905 104.462 107.236 104.042C104.276 103.783 100.996 103.331 98.2638 102.001C98.1424 101.939 98.0498 101.832 98.0051 101.703C97.9605 101.575 97.9672 101.434 98.0238 101.31C98.0491 101.249 98.0865 101.194 98.1339 101.148C98.1813 101.102 98.2377 101.066 98.2996 101.042C98.3614 101.018 98.4275 101.008 98.4937 101.01C98.5599 101.013 98.6249 101.029 98.6846 101.058C101.313 102.336 104.473 102.756 107.321 103.005C111.9 103.416 116.515 103.165 121.022 102.26C123.945 101.677 127.011 100.993 129.611 99.4145C129.668 99.3804 129.731 99.3582 129.796 99.3492C129.861 99.3403 129.928 99.3447 129.992 99.3624C130.055 99.3801 130.115 99.4106 130.166 99.4519C130.217 99.4933 130.259 99.5447 130.29 99.603C130.357 99.7223 130.375 99.8623 130.341 99.9944C130.307 100.127 130.224 100.241 130.109 100.314V100.314Z" fill="#4F2832"/>
<path fill-rule="evenodd" clip-rule="evenodd" d="M113.107 74.8136L116.716 65.0479C116.716 65.0479 111.837 67.8197 113.107 74.8136Z" fill="#E78E78"/>
<g opacity="0.38">
<path opacity="0.38" fill-rule="evenodd" clip-rule="evenodd" d="M158.286 188.125L153.589 183.422L159.019 191.007L158.286 188.125Z" fill="url(#paint4_linear_26_47)"/>
<path opacity="0.38" fill-rule="evenodd" clip-rule="evenodd" d="M152.883 185.311C152.883 185.311 153.491 191.426 149.856 190.685C146.222 189.943 145.236 185.517 145.236 185.517C145.236 185.517 144.718 191.526 141.233 191.128C137.749 190.73 135.691 186.211 135.691 186.211C135.691 186.211 139.152 191.828 142.182 190.09C144.222 188.919 144.44 182.224 144.44 182.224C144.44 182.224 147.05 189.295 149.897 189.447C152.743 189.598 152.883 185.311 152.883 185.311Z" fill="url(#paint5_linear_26_47)"/>
<path opacity="0.38" fill-rule="evenodd" clip-rule="evenodd" d="M64.6194 183.207C64.6194 183.207 63.6146 189.268 67.2893 188.771C70.9641 188.275 72.2359 183.924 72.2359 183.924C72.2359 183.924 72.3619 189.955 75.8645 189.791C79.367 189.626 81.7155 185.256 81.7155 185.256C81.7155 185.256 77.8954 190.629 74.9857 188.691C73.0267 187.387 73.2451 180.692 73.2451 180.692C73.2451 180.692 70.18 187.573 67.3297 187.534C64.4795 187.494 64.6194 183.207 64.6194 183.207Z" fill="url(#paint6_linear_26_47)"/>
<path opacity="0.38" fill-rule="evenodd" clip-rule="evenodd" d="M85.2989 184.296C85.2989 184.296 84.4543 189.731 87.4938 189.277C90.5333 188.823 91.5948 184.921 91.5948 184.921C91.5948 184.921 91.6853 190.326 94.5816 190.171C97.478 190.015 99.4297 186.092 99.4297 186.092C99.4297 186.092 96.259 190.917 93.8576 189.187C92.2407 188.022 92.4365 182.021 92.4365 182.021C92.4365 182.021 89.8866 188.196 87.53 188.168C85.1735 188.139 85.2989 184.296 85.2989 184.296Z" fill="url(#paint7_linear_26_47)"/>
</g>
<path opacity="0.38" fill-rule="evenodd" clip-rule="evenodd" d="M131.999 185.028C131.999 185.028 132.555 190.509 129.244 189.843C125.933 189.177 125.034 185.209 125.034 185.209C125.034 185.209 124.564 190.595 121.39 190.236C118.216 189.878 116.338 185.826 116.338 185.826C116.338 185.826 119.494 190.863 122.253 189.306C124.111 188.258 124.307 182.256 124.307 182.256C124.307 182.256 126.687 188.596 129.281 188.734C131.874 188.871 131.999 185.028 131.999 185.028Z" fill="url(#paint8_linear_26_47)"/>
<path d="M150.388 95.5771C150.388 95.5771 161.086 100.73 183.124 107.669L162.651 107.229L145.334 102.994C145.334 102.994 149.504 104.581 149.561 102.888C149.617 101.195 148.176 96.6279 148.176 96.6279L150.388 95.5771Z" fill="#693545"/>
<path d="M164.962 106.348C164.962 106.348 143.585 122.5 137.159 127.234C100.637 154.134 56.7103 117.838 56.7103 117.838C56.7103 117.838 55.2817 108.979 60.645 98.5406C60.645 98.5406 81.0347 125.998 113.73 122.661C129.173 121.084 134.545 109.151 144.623 107.044C154.24 105.033 164.962 106.348 164.962 106.348Z" fill="#693545"/>
<path d="M147.255 106.897L183.124 107.669L182.943 115.995L147.074 115.223L147.255 106.897Z" fill="#FDCE85"/>
<path d="M164.258 151.342C153.881 151.119 145.66 142.132 145.895 131.27C146.131 120.407 154.735 111.782 165.112 112.005C175.489 112.229 183.71 121.216 183.474 132.078C183.238 142.941 174.635 151.566 164.258 151.342Z" fill="#FDCE85"/>
<path d="M165.028 114.409C174.122 114.605 181.352 122.509 181.146 132.028C180.939 141.547 173.372 149.133 164.278 148.937C155.185 148.742 147.954 140.838 148.161 131.318C148.367 121.799 155.934 114.213 165.028 114.409ZM164.309 115.869C161.958 115.948 159.659 116.578 157.599 117.708C155.539 118.838 153.776 120.436 152.454 122.372L153.571 123.191C154.934 121.228 155.873 120.912 156.059 120.87C156.186 120.844 156.317 120.854 156.437 120.9C156.558 120.945 156.662 121.025 156.739 121.128L157.452 122.072C158.556 121.162 159.82 120.464 161.18 120.014L160.841 118.865C160.803 118.737 160.8 118.603 160.833 118.474C160.865 118.345 160.93 118.227 161.023 118.132C161.162 117.993 161.946 117.358 164.278 117.295L164.309 115.869ZM165.683 115.899L165.652 117.325C167.979 117.488 168.735 118.156 168.867 118.301C168.956 118.4 169.016 118.521 169.043 118.651C169.069 118.781 169.061 118.915 169.017 119.041L168.629 120.174C170.231 120.781 171.678 121.736 172.864 122.969L173.675 122.113C173.763 122.018 173.876 121.952 174 121.92C174.125 121.889 174.256 121.894 174.378 121.936C174.56 121.998 175.459 122.421 176.599 124.534L177.798 123.862C176.619 121.623 174.889 119.718 172.771 118.326C170.652 116.933 168.214 116.098 165.683 115.899ZM179.771 131.999C179.822 129.643 179.361 127.305 178.421 125.143L177.217 125.817C178.175 128.055 177.964 129.073 177.903 129.265C177.866 129.389 177.794 129.501 177.696 129.587C177.598 129.673 177.478 129.73 177.349 129.752L176.216 129.927C176.309 130.589 176.349 131.257 176.335 131.925C176.315 132.878 176.188 133.825 175.957 134.75L177.057 135.054C177.183 135.09 177.296 135.161 177.383 135.257C177.471 135.354 177.53 135.473 177.554 135.601C177.593 135.798 177.691 136.836 176.491 138.951L177.612 139.773C178.973 137.402 179.715 134.729 179.771 131.999V131.999ZM164.998 147.477C167.348 147.399 169.647 146.769 171.707 145.639C173.767 144.509 175.53 142.911 176.853 140.974L175.735 140.155C174.372 142.119 173.434 142.435 173.247 142.476C173.121 142.502 172.99 142.492 172.869 142.446C172.749 142.401 172.644 142.321 172.568 142.218L171.854 141.274C170.75 142.184 169.486 142.882 168.126 143.332L168.465 144.482C168.503 144.609 168.506 144.744 168.474 144.873C168.442 145.001 168.376 145.119 168.283 145.214C168.144 145.353 167.36 145.988 165.029 146.052L164.998 147.477L164.998 147.477ZM166.981 144.332L166.604 143.053C166.549 142.863 166.57 142.66 166.664 142.486C166.708 142.401 166.77 142.327 166.845 142.268C166.92 142.209 167.006 142.165 167.099 142.141C168.747 141.71 170.26 140.875 171.499 139.711C171.568 139.646 171.65 139.596 171.739 139.565C171.829 139.534 171.924 139.522 172.018 139.53C172.113 139.539 172.204 139.567 172.286 139.614C172.369 139.661 172.44 139.724 172.496 139.801L173.287 140.849C173.968 140.251 174.545 139.546 174.995 138.761C175.508 138.004 175.897 137.17 176.147 136.291L174.921 135.953C174.829 135.927 174.743 135.882 174.67 135.822C174.596 135.761 174.536 135.686 174.493 135.601C174.402 135.426 174.385 135.221 174.444 135.033C175.013 133.233 175.116 131.319 174.744 129.469C174.705 129.276 174.745 129.075 174.855 128.911C174.907 128.831 174.975 128.764 175.055 128.712C175.135 128.661 175.224 128.626 175.318 128.611L176.577 128.417C176.429 127.513 176.135 126.64 175.707 125.83C175.346 124.997 174.852 124.229 174.243 123.555L173.339 124.507C173.275 124.575 173.197 124.629 173.111 124.666C173.024 124.703 172.931 124.721 172.837 124.719L172.833 124.719C172.739 124.716 172.646 124.694 172.561 124.652C172.476 124.611 172.4 124.553 172.34 124.48C171.08 122.992 169.418 121.896 167.551 121.321C167.459 121.292 167.375 121.245 167.303 121.183C167.23 121.12 167.172 121.044 167.131 120.957C167.045 120.779 167.033 120.575 167.096 120.388L167.527 119.13C166.693 118.845 165.816 118.707 164.934 118.725C164.054 118.671 163.171 118.769 162.325 119.015L162.702 120.294C162.757 120.483 162.736 120.687 162.643 120.861C162.598 120.945 162.536 121.019 162.461 121.078C162.386 121.138 162.3 121.181 162.208 121.206C160.56 121.636 159.047 122.472 157.807 123.635C157.738 123.7 157.657 123.75 157.568 123.781C157.478 123.812 157.384 123.824 157.289 123.816C157.195 123.807 157.104 123.778 157.021 123.732C156.939 123.685 156.867 123.622 156.81 123.546L156.019 122.498C155.338 123.095 154.761 123.8 154.312 124.586C153.798 125.343 153.409 126.176 153.16 127.055L154.386 127.394C154.478 127.42 154.564 127.464 154.637 127.525C154.711 127.585 154.771 127.66 154.814 127.745C154.904 127.921 154.922 128.125 154.862 128.313C154.293 130.113 154.19 132.027 154.563 133.877C154.601 134.071 154.561 134.271 154.452 134.436C154.4 134.515 154.331 134.583 154.252 134.634C154.172 134.686 154.082 134.72 153.988 134.736L152.729 134.93C152.877 135.833 153.171 136.707 153.599 137.517C153.96 138.349 154.455 139.118 155.064 139.792L155.967 138.84C156.03 138.769 156.108 138.713 156.196 138.676C156.283 138.64 156.378 138.623 156.473 138.627C156.568 138.63 156.661 138.653 156.746 138.694C156.831 138.735 156.906 138.794 156.967 138.866C158.226 140.354 159.889 141.451 161.756 142.026C161.847 142.054 161.932 142.101 162.004 142.164C162.076 142.226 162.135 142.303 162.176 142.389C162.261 142.567 162.274 142.771 162.21 142.958L161.779 144.216C162.613 144.502 163.491 144.639 164.372 144.621C165.252 144.676 166.135 144.578 166.981 144.332V144.332ZM163.623 147.447L163.654 146.022C161.328 145.859 160.572 145.19 160.439 145.045C160.351 144.947 160.29 144.826 160.263 144.696C160.237 144.566 160.246 144.431 160.289 144.306L160.677 143.172C159.075 142.565 157.628 141.61 156.442 140.378L155.631 141.234C155.543 141.327 155.43 141.394 155.305 141.425C155.181 141.457 155.049 141.452 154.928 141.411C154.747 141.349 153.853 140.928 152.718 138.833L151.542 139.545C152.725 141.768 154.453 143.658 156.565 145.04C158.677 146.421 161.104 147.249 163.623 147.447V147.447ZM152.098 137.549C151.131 135.297 151.342 134.274 151.403 134.082C151.441 133.957 151.513 133.846 151.61 133.76C151.708 133.674 151.828 133.616 151.957 133.595L153.091 133.42C152.998 132.758 152.957 132.09 152.971 131.422C152.991 130.469 153.119 129.521 153.351 128.596L152.249 128.292C152.123 128.255 152.01 128.185 151.923 128.088C151.835 127.991 151.776 127.873 151.752 127.744C151.714 127.547 151.616 126.51 152.815 124.395L151.695 123.574C150.423 125.793 149.69 128.277 149.554 130.828C149.419 133.379 149.884 135.926 150.913 138.266L152.098 137.549Z" fill="#F8A817"/>
<path d="M161.857 141.438C161.794 141.356 161.748 141.262 161.723 141.162C161.698 141.062 161.694 140.958 161.712 140.856L162.382 136.898C161.983 136.711 161.608 136.476 161.267 136.198L158.224 138.644C158.147 138.707 158.056 138.752 157.959 138.775C157.862 138.798 157.761 138.799 157.664 138.777C157.565 138.755 157.473 138.711 157.393 138.65C157.314 138.588 157.249 138.51 157.203 138.42L155.222 134.639C155.175 134.547 155.147 134.446 155.14 134.343C155.133 134.24 155.147 134.136 155.182 134.039C155.216 133.943 155.27 133.856 155.34 133.783C155.411 133.71 155.496 133.653 155.591 133.616L159.185 132.241C159.136 131.785 159.146 131.324 159.215 130.87L155.684 129.342C155.591 129.301 155.508 129.241 155.44 129.165C155.373 129.089 155.323 128.999 155.294 128.902C155.263 128.803 155.253 128.699 155.264 128.597C155.276 128.494 155.308 128.395 155.36 128.305L157.502 124.612C157.552 124.525 157.621 124.449 157.703 124.391C157.785 124.333 157.879 124.293 157.978 124.275C158.077 124.258 158.177 124.264 158.273 124.291C158.369 124.318 158.458 124.367 158.532 124.433L161.466 127.007C161.819 126.744 162.204 126.525 162.611 126.356L162.113 122.372C162.1 122.27 162.108 122.166 162.138 122.067C162.167 121.968 162.217 121.876 162.283 121.798C162.348 121.721 162.428 121.66 162.52 121.618C162.611 121.577 162.71 121.556 162.81 121.558L166.933 121.647C167.034 121.649 167.132 121.674 167.221 121.72C167.311 121.765 167.389 121.83 167.449 121.909C167.513 121.99 167.558 122.084 167.583 122.184C167.608 122.285 167.612 122.389 167.595 122.49L166.925 126.449C167.324 126.635 167.699 126.87 168.04 127.148L171.083 124.703C171.16 124.64 171.251 124.595 171.348 124.572C171.445 124.549 171.546 124.548 171.643 124.569C171.741 124.592 171.834 124.635 171.913 124.697C171.993 124.759 172.058 124.837 172.104 124.926L174.084 128.708C174.132 128.8 174.16 128.9 174.167 129.004C174.174 129.107 174.159 129.21 174.124 129.308C174.091 129.403 174.037 129.49 173.966 129.563C173.896 129.636 173.81 129.693 173.716 129.73L170.121 131.105C170.171 131.561 170.161 132.022 170.092 132.476L173.623 134.004C173.716 134.045 173.799 134.106 173.866 134.182C173.933 134.258 173.983 134.347 174.013 134.444C174.044 134.543 174.054 134.647 174.042 134.75C174.031 134.853 173.998 134.952 173.947 135.042L171.804 138.734C171.754 138.822 171.686 138.897 171.604 138.955C171.522 139.014 171.427 139.053 171.328 139.071C171.23 139.089 171.129 139.084 171.033 139.057C170.937 139.03 170.848 138.981 170.774 138.914L167.841 136.34C167.487 136.603 167.103 136.822 166.696 136.99L167.193 140.974C167.207 141.076 167.198 141.18 167.169 141.279C167.14 141.378 167.09 141.47 167.023 141.549C166.959 141.625 166.878 141.687 166.787 141.728C166.696 141.77 166.597 141.79 166.496 141.788L162.373 141.7C162.273 141.697 162.175 141.672 162.085 141.627C161.996 141.581 161.918 141.517 161.857 141.438V141.438ZM163.834 136.563L163.206 140.278L165.726 140.332L165.26 136.594C165.236 136.426 165.273 136.254 165.363 136.11C165.454 135.966 165.593 135.858 165.756 135.806C166.368 135.63 166.93 135.31 167.394 134.875C167.515 134.76 167.674 134.694 167.841 134.691C168.008 134.688 168.17 134.747 168.295 134.858L171.046 137.272L172.356 135.014L169.041 133.58C168.885 133.508 168.76 133.385 168.686 133.232C168.613 133.078 168.596 132.904 168.638 132.739C168.808 132.099 168.823 131.427 168.68 130.78C168.645 130.614 168.67 130.44 168.75 130.29C168.83 130.14 168.961 130.022 169.119 129.958L172.493 128.667L171.283 126.355L168.43 128.648C168.3 128.753 168.136 128.806 167.969 128.796C167.802 128.785 167.646 128.713 167.531 128.592C167.086 128.138 166.538 127.795 165.934 127.592C165.774 127.533 165.64 127.419 165.555 127.271C165.471 127.123 165.441 126.951 165.472 126.783L166.101 123.068L163.58 123.014L164.047 126.753C164.071 126.921 164.034 127.092 163.943 127.237C163.852 127.381 163.713 127.488 163.551 127.54C162.938 127.717 162.377 128.036 161.912 128.471C161.792 128.587 161.632 128.653 161.465 128.656C161.298 128.659 161.136 128.599 161.012 128.488L158.261 126.075L156.951 128.332L160.266 129.767C160.421 129.838 160.547 129.961 160.62 130.115C160.694 130.268 160.711 130.443 160.669 130.608C160.498 131.248 160.484 131.919 160.626 132.566C160.661 132.733 160.637 132.906 160.556 133.057C160.476 133.207 160.346 133.325 160.188 133.389L156.813 134.68L158.024 136.991L160.877 134.698C161.006 134.593 161.171 134.54 161.337 134.551C161.504 134.561 161.661 134.634 161.776 134.754C162.221 135.209 162.768 135.552 163.372 135.755C163.533 135.814 163.667 135.927 163.751 136.075C163.836 136.223 163.865 136.396 163.834 136.563L163.834 136.563Z" fill="#F8A817"/>
<path fill-rule="evenodd" clip-rule="evenodd" d="M65.0485 159.244C64.8807 160.016 64.6988 160.775 64.4963 161.498L64.46 161.629C64.5423 161.286 64.6258 160.943 64.7104 160.6C64.822 160.147 64.9347 159.695 65.0485 159.244Z" fill="url(#paint9_linear_26_47)"/>
<path fill-rule="evenodd" clip-rule="evenodd" d="M125.175 96.9092L128.673 100.972L124.108 102.556L125.175 96.9092Z" fill="#FFFDF0"/>
<path fill-rule="evenodd" clip-rule="evenodd" d="M109.029 98.7045L110.599 103.924L105.822 103.384L109.029 98.7045Z" fill="#FFFDF0"/>
<path fill-rule="evenodd" clip-rule="evenodd" d="M78.9819 97.2861C78.8443 98.3487 78.4203 99.3543 77.755 100.196C77.5656 100.416 77.3293 100.59 77.0634 100.706C76.7975 100.823 76.5087 100.878 76.2184 100.869C75.7872 100.848 75.373 100.695 75.032 100.431C74.7271 100.205 74.4649 99.927 74.2575 99.6098C73.4601 98.2384 73.059 96.6741 73.0986 95.0899C73.0883 95.0025 73.1129 94.9147 73.1671 94.8452C73.2213 94.7758 73.3006 94.7303 73.3881 94.7186C73.4315 94.7149 73.4752 94.7199 73.5166 94.7333C73.558 94.7467 73.5963 94.7681 73.6293 94.7964C73.6623 94.8247 73.6893 94.8592 73.7087 94.898C73.7282 94.9368 73.7396 94.9791 73.7425 95.0223C73.9675 96.3627 74.5285 97.6249 75.3736 98.6919C75.5246 98.8748 75.6947 99.0412 75.881 99.1884C76.0139 99.3091 76.1734 99.3968 76.3468 99.4445C76.5176 99.4679 76.6915 99.4476 76.8522 99.3854C77.0129 99.3232 77.1551 99.2213 77.2651 99.0891C77.7915 98.5161 78.2021 97.8475 78.4746 97.1198C78.484 97.0858 78.5002 97.0541 78.5222 97.0264C78.5442 96.9988 78.5715 96.9758 78.6025 96.9589C78.6336 96.9419 78.6677 96.9314 78.703 96.9278C78.7382 96.9243 78.7738 96.9278 78.8076 96.9382C78.8762 96.9625 78.9327 97.0123 78.9652 97.0772C78.9976 97.142 79.0036 97.2169 78.9819 97.2861Z" fill="#693545"/>
<path fill-rule="evenodd" clip-rule="evenodd" d="M143.803 82.0403C144.581 83.219 145.067 84.5654 145.219 85.968C145.239 86.3187 145.201 86.6703 145.106 87.0085C145.003 87.4126 144.78 87.7764 144.465 88.0517C144.258 88.2323 144.01 88.3608 143.742 88.4263C143.474 88.4919 143.194 88.4927 142.926 88.4285C142.015 88.161 141.194 87.6522 140.55 86.9563C140.48 86.9008 140.434 86.8209 140.422 86.7329C140.409 86.6449 140.43 86.5554 140.481 86.4825C140.505 86.4469 140.536 86.4167 140.573 86.3936C140.609 86.3705 140.649 86.355 140.692 86.3482C140.734 86.3414 140.778 86.3433 140.819 86.3539C140.861 86.3645 140.9 86.3835 140.934 86.4098C141.496 86.7773 142.122 87.0357 142.78 87.1712C142.912 87.2076 143.052 87.2086 143.184 87.174C143.317 87.1394 143.438 87.0704 143.535 86.9741C143.622 86.8552 143.681 86.7184 143.708 86.5737C143.765 86.3661 143.804 86.1537 143.824 85.9392C143.911 84.7007 143.742 83.4574 143.326 82.287C143.295 82.2212 143.29 82.1461 143.312 82.0768C143.335 82.0076 143.383 81.9493 143.446 81.9138C143.478 81.8978 143.512 81.8883 143.548 81.886C143.583 81.8838 143.619 81.8887 143.652 81.9005C143.685 81.9124 143.716 81.9309 143.742 81.9549C143.768 81.9789 143.788 82.008 143.803 82.0403V82.0403Z" fill="#693545"/>
<path fill-rule="evenodd" clip-rule="evenodd" d="M137.834 140.589C138.613 141.768 139.098 143.114 139.25 144.517C139.271 144.867 139.233 145.219 139.137 145.557C139.034 145.961 138.811 146.325 138.497 146.6C138.289 146.781 138.041 146.91 137.773 146.975C137.506 147.041 137.226 147.041 136.958 146.977C136.047 146.71 135.225 146.201 134.581 145.505C134.512 145.449 134.466 145.37 134.453 145.282C134.44 145.194 134.462 145.104 134.513 145.031C134.537 144.996 134.568 144.965 134.604 144.942C134.64 144.919 134.681 144.904 134.723 144.897C134.766 144.89 134.809 144.892 134.851 144.903C134.893 144.913 134.932 144.932 134.966 144.958C135.527 145.326 136.153 145.584 136.811 145.72C136.944 145.756 137.083 145.757 137.216 145.723C137.348 145.688 137.469 145.619 137.566 145.523C137.653 145.404 137.712 145.267 137.739 145.122C137.797 144.915 137.835 144.702 137.855 144.488C137.943 143.249 137.773 142.006 137.358 140.836C137.326 140.77 137.322 140.695 137.344 140.626C137.366 140.556 137.414 140.498 137.478 140.463C137.509 140.446 137.544 140.437 137.579 140.435C137.615 140.432 137.65 140.437 137.683 140.449C137.717 140.461 137.747 140.48 137.773 140.504C137.799 140.528 137.82 140.557 137.834 140.589Z" fill="#693545"/>
<path fill-rule="evenodd" clip-rule="evenodd" d="M61.5866 97.431C61.1315 99.0277 60.4657 100.793 59.9482 102.549C59.7829 103.109 59.6413 103.665 59.5116 104.212C59.37 104.747 59.2676 105.292 59.2051 105.842C59.0713 106.888 59.1684 107.613 59.6223 107.943C60.115 108.303 60.8692 108.204 61.8044 107.716C61.8411 107.694 61.8819 107.679 61.9245 107.673C61.9671 107.667 62.0104 107.67 62.0519 107.681C62.0934 107.692 62.1321 107.712 62.1657 107.739C62.1992 107.765 62.2269 107.799 62.2469 107.837C62.2905 107.914 62.3028 108.005 62.2812 108.091C62.2597 108.177 62.2059 108.252 62.1309 108.3C60.9172 109.17 59.8407 109.274 59.0884 108.867C58.312 108.447 57.8198 107.41 57.8297 105.746C57.8501 105.164 57.9249 104.586 58.053 104.018C58.1409 103.65 58.2502 103.288 58.3804 102.934C59.1054 100.941 60.2951 99.0115 61.0903 97.2337C61.1017 97.2002 61.1197 97.1694 61.1433 97.143C61.167 97.1167 61.1957 97.0954 61.2278 97.0804C61.2599 97.0654 61.2947 97.057 61.3302 97.0557C61.3656 97.0544 61.4009 97.0603 61.4341 97.073C61.5009 97.1016 61.5541 97.1548 61.5825 97.2215C61.6109 97.2882 61.6124 97.3632 61.5866 97.431V97.431Z" fill="#693545"/>
<path fill-rule="evenodd" clip-rule="evenodd" d="M82.461 111.185C82.3499 111.17 82.5175 110.88 82.5202 110.788C82.5218 110.636 82.4785 110.488 82.3957 110.361C82.3464 110.283 82.2813 110.216 82.2047 110.165C82.1281 110.113 82.0415 110.078 81.9506 110.062C81.8596 110.045 81.7662 110.048 81.6764 110.069C81.5865 110.091 81.502 110.131 81.4284 110.186C80.992 110.516 80.6131 110.915 80.3067 111.367C80.074 111.714 79.8094 112.039 79.5163 112.337C79.3863 112.468 79.2211 112.559 79.0406 112.599C78.8601 112.639 78.6718 112.626 78.4984 112.562C78.2949 112.491 78.1097 112.376 77.9561 112.225C77.8026 112.074 77.6844 111.891 77.6103 111.689C77.3839 111.17 77.2461 110.617 77.2023 110.053L77.1353 108.899C77.1295 108.753 77.1913 108.445 77.1912 108.3C77.1945 108.196 77.1775 108.093 77.1412 107.996C77.1098 107.906 77.0547 107.826 76.9818 107.764C76.9088 107.702 76.8206 107.661 76.7262 107.645C76.6335 107.625 76.5371 107.63 76.4474 107.661C76.3577 107.692 76.2783 107.747 76.2177 107.819C75.5817 108.641 74.7788 109.319 73.8615 109.81C73.5737 109.931 73.2618 109.985 72.9499 109.966C72.638 109.948 72.3345 109.859 72.0629 109.705C72.0254 109.684 71.984 109.671 71.9411 109.666C71.8983 109.661 71.8549 109.665 71.8137 109.678C71.7725 109.69 71.7343 109.711 71.7014 109.739C71.6685 109.766 71.6416 109.8 71.6224 109.839C71.5806 109.917 71.5705 110.009 71.5941 110.094C71.6176 110.18 71.6731 110.253 71.7492 110.3C72.094 110.529 72.4869 110.676 72.8978 110.73C73.3087 110.784 73.7265 110.743 74.1191 110.611C74.8141 110.358 75.4533 109.974 76.0012 109.479L75.9922 110.131C75.9969 111.018 76.2002 111.892 76.5872 112.691C76.8981 113.305 77.4358 113.775 78.0875 114.003C78.3928 114.118 78.7195 114.164 79.0448 114.139C79.3701 114.115 79.6859 114.019 79.9702 113.86C80.5 113.51 80.9443 113.046 81.2704 112.503C81.3345 113.083 81.5333 113.641 81.851 114.132C81.9891 114.336 82.167 114.51 82.374 114.645C82.581 114.779 82.8131 114.871 83.0563 114.914C83.5091 115.001 83.978 114.937 84.3904 114.731C84.8028 114.526 85.1357 114.191 85.3374 113.778C85.859 112.72 86.1961 111.582 86.3342 110.412C86.3503 110.341 86.3382 110.267 86.3005 110.205C86.2627 110.144 86.2023 110.099 86.1319 110.081C86.0972 110.074 86.0614 110.073 86.0266 110.08C85.9918 110.087 85.9587 110.101 85.9294 110.121C85.9 110.141 85.8749 110.166 85.8555 110.196C85.8361 110.225 85.8229 110.258 85.8165 110.293C85.6168 111.354 85.2333 112.373 84.683 113.304C84.5466 113.545 84.3332 113.735 84.0765 113.842C83.8199 113.949 83.5346 113.968 83.2658 113.896C83.1252 113.852 82.9971 113.774 82.892 113.671C82.7869 113.568 82.7078 113.441 82.661 113.302C82.5286 112.937 82.4613 112.552 82.462 112.164L82.461 111.185ZM82.461 111.185C82.4726 111.186 82.4612 111.161 82.4617 111.152L82.461 111.185ZM81.1903 111.019C81.102 110.887 81.0509 110.756 81.1916 110.769C81.2676 110.774 81.2261 110.903 81.1903 111.019H81.1903Z" fill="#693545"/>
<path fill-rule="evenodd" clip-rule="evenodd" d="M145.334 102.994C145.58 103.156 145.83 103.313 146.085 103.458C146.648 103.791 147.256 104.041 147.892 104.199C149.186 104.494 149.99 104.135 150.386 103.484C150.58 103.084 150.683 102.645 150.688 102.2C150.693 101.755 150.599 101.315 150.414 100.91L149.699 99.1975C149.475 98.7425 149.234 98.306 148.979 97.8801C148.725 97.4555 148.458 97.0415 148.176 96.6278C148.158 96.5979 148.133 96.5721 148.104 96.5519C148.076 96.5318 148.043 96.5177 148.009 96.5106C147.974 96.5035 147.938 96.5035 147.904 96.5106C147.87 96.5176 147.837 96.5317 147.808 96.5518C147.749 96.595 147.709 96.6587 147.695 96.7302C147.682 96.8016 147.696 96.8756 147.735 96.9372C147.985 97.3577 148.223 97.7768 148.443 98.2069C148.662 98.6326 148.863 99.0681 149.049 99.5203L149.617 101.195C149.73 101.465 149.783 101.756 149.773 102.048C149.763 102.34 149.691 102.626 149.561 102.888C149.325 103.219 148.862 103.235 148.182 103.022C147.666 102.852 147.177 102.61 146.729 102.303C145.978 101.813 145.28 101.225 144.528 100.73C144.437 100.666 144.332 100.626 144.222 100.613C144.112 100.599 144 100.613 143.897 100.653C143.786 100.691 143.687 100.755 143.607 100.84C143.527 100.924 143.47 101.027 143.439 101.139C143.398 101.277 143.39 101.423 143.415 101.564C143.437 101.699 143.546 101.971 143.576 102.104L143.874 103.226C144.158 103.958 144.356 104.72 144.465 105.496C144.485 105.815 144.487 106.131 144.218 106.291C144.057 106.371 143.881 106.419 143.701 106.43C143.521 106.442 143.34 106.417 143.169 106.359C142.465 106.148 141.797 105.833 141.187 105.425L140.258 104.758C140.157 104.678 139.986 104.457 139.886 104.38C139.799 104.309 139.694 104.262 139.583 104.246C139.505 104.234 139.426 104.242 139.352 104.267C139.278 104.292 139.211 104.335 139.157 104.391C139.098 104.447 139.052 104.514 139.022 104.589C138.992 104.664 138.979 104.744 138.983 104.824C139.018 105.948 139.527 107.316 139.313 108.318C139.196 108.867 138.805 109.249 137.908 109.378C137.82 109.39 137.741 109.436 137.687 109.506C137.633 109.576 137.609 109.664 137.62 109.751C137.623 109.794 137.634 109.836 137.654 109.875C137.674 109.914 137.701 109.948 137.734 109.976C137.767 110.004 137.805 110.026 137.847 110.039C137.888 110.052 137.932 110.057 137.975 110.053C139.31 109.946 139.856 109.319 140.077 108.522C140.214 107.687 140.208 106.835 140.059 106.002L140.579 106.428C141.267 106.945 142.028 107.356 142.837 107.65C143.165 107.769 143.514 107.82 143.862 107.801C144.21 107.783 144.551 107.694 144.865 107.541C145.15 107.383 145.391 107.157 145.567 106.883C145.743 106.608 145.847 106.295 145.87 105.97C145.884 104.953 145.702 103.943 145.334 102.994V102.994Z" fill="#693545"/>
<path fill-rule="evenodd" clip-rule="evenodd" d="M115.849 148.374C115.953 148.659 116.063 148.942 116.183 149.218C116.441 149.838 116.783 150.42 117.199 150.947C118.063 151.998 118.911 152.216 119.601 151.944C119.99 151.739 120.328 151.449 120.588 151.095C120.847 150.74 121.023 150.332 121.1 149.9L121.512 148.079C121.595 147.574 121.653 147.073 121.694 146.571C121.735 146.072 121.76 145.573 121.772 145.064C121.776 145.028 121.772 144.992 121.761 144.958C121.751 144.924 121.733 144.892 121.71 144.865C121.687 144.837 121.658 144.815 121.626 144.799C121.594 144.783 121.558 144.774 121.522 144.772C121.487 144.77 121.451 144.775 121.417 144.787C121.383 144.799 121.352 144.818 121.326 144.843C121.299 144.868 121.278 144.897 121.264 144.93C121.25 144.963 121.242 144.998 121.242 145.034C121.2 145.528 121.149 146.013 121.078 146.496C121.009 146.975 120.92 147.45 120.808 147.929L120.301 149.628C120.24 149.909 120.117 150.173 119.941 150.401C119.766 150.63 119.541 150.816 119.284 150.947C118.906 151.064 118.527 150.785 118.106 150.188C117.792 149.727 117.541 149.225 117.36 148.698C117.041 147.834 116.821 146.924 116.505 146.055C116.471 145.947 116.411 145.85 116.331 145.77C116.251 145.69 116.153 145.631 116.046 145.596C115.939 145.557 115.823 145.545 115.711 145.563C115.598 145.581 115.491 145.627 115.402 145.697C115.289 145.783 115.199 145.895 115.139 146.023C115.079 146.144 115.01 146.431 114.957 146.557L114.552 147.642C114.36 148.401 114.081 149.136 113.72 149.832C113.553 150.1 113.373 150.353 113.067 150.313C112.707 150.233 112.392 150.016 112.191 149.707C111.75 149.095 111.397 148.424 111.145 147.713L110.787 146.595C110.752 146.467 110.741 146.183 110.706 146.059C110.678 145.947 110.621 145.844 110.541 145.76C110.488 145.703 110.421 145.66 110.348 145.633C110.274 145.607 110.195 145.598 110.117 145.609C110.039 145.616 109.963 145.642 109.896 145.683C109.829 145.724 109.772 145.78 109.73 145.846C109.114 146.768 108.734 148.184 107.988 148.851C107.58 149.217 107.049 149.277 106.258 148.817C106.222 148.794 106.181 148.779 106.139 148.773C106.096 148.766 106.053 148.769 106.011 148.78C105.969 148.791 105.931 148.81 105.897 148.837C105.863 148.863 105.835 148.896 105.815 148.934C105.77 149.011 105.756 149.102 105.777 149.189C105.797 149.275 105.85 149.351 105.925 149.4C107.052 150.154 107.848 149.995 108.481 149.495C109.074 148.907 109.559 148.22 109.914 147.466L110.084 148.134C110.337 148.981 110.707 149.788 111.185 150.533C111.566 151.134 112.17 151.561 112.865 151.721C113.179 151.775 113.502 151.745 113.802 151.636C114.101 151.526 114.366 151.339 114.569 151.095C115.169 150.279 115.604 149.355 115.849 148.374V148.374Z" fill="#693545"/>
<path fill-rule="evenodd" clip-rule="evenodd" d="M105.021 42.2683C105.275 43.9844 105.619 45.6717 105.951 47.3798C106.092 48.1067 106.245 48.8307 106.361 49.562C106.476 50.2966 106.556 51.0338 106.642 51.7718C106.845 53.5076 107.008 55.2347 107.195 56.9664C107.211 57.0529 107.193 57.1424 107.144 57.2158C107.095 57.2892 107.019 57.3408 106.933 57.3596C106.89 57.367 106.847 57.3657 106.804 57.356C106.762 57.3463 106.722 57.3282 106.687 57.3029C106.652 57.2777 106.623 57.2457 106.6 57.2088C106.578 57.1719 106.563 57.131 106.557 57.0883C106.15 55.3967 105.71 53.7194 105.34 52.0115C105.183 51.2806 105.025 50.5498 104.914 49.8104C104.803 49.0679 104.74 48.3196 104.681 47.5724C104.541 45.8157 104.497 44.0697 104.492 42.313C104.485 42.2412 104.506 42.1695 104.552 42.1135C104.597 42.0574 104.664 42.0217 104.736 42.0142C104.771 42.0118 104.807 42.0165 104.841 42.028C104.874 42.0395 104.905 42.0577 104.932 42.0814C104.958 42.1051 104.98 42.1338 104.995 42.1659C105.01 42.198 105.019 42.2328 105.021 42.2683V42.2683Z" fill="#693545"/>
<path fill-rule="evenodd" clip-rule="evenodd" d="M97.7711 63.5615C97.0623 62.9953 96.3199 62.4721 95.5479 61.9947C95.224 61.7884 94.8982 61.6033 94.5802 61.3978C94.3693 61.2626 94.1632 61.1194 93.9582 60.9732C93.4761 60.6313 93.0123 60.2754 92.4971 59.9569C92.0474 59.678 91.5918 59.4103 91.0967 59.1593C91.0141 59.1269 90.9473 59.0639 90.9102 58.9835C90.8731 58.9032 90.8687 58.8117 90.8978 58.7281C90.9101 58.687 90.9307 58.6487 90.9583 58.6157C90.9859 58.5827 91.0199 58.5555 91.0582 58.5359C91.0966 58.5162 91.1385 58.5045 91.1816 58.5013C91.2246 58.4982 91.2678 58.5038 91.3086 58.5176C92.2721 58.7217 93.2123 59.0225 94.1147 59.4156C94.5088 59.585 94.8865 59.7898 95.2432 60.0274C95.5948 60.2783 95.9244 60.5584 96.2285 60.8648C96.9348 61.577 97.5776 62.3489 98.1497 63.172C98.199 63.2255 98.2261 63.2957 98.2256 63.3684C98.225 63.441 98.1968 63.5108 98.1467 63.5636C98.1226 63.5892 98.0934 63.6096 98.061 63.6234C98.0286 63.6373 97.9937 63.6443 97.9585 63.6441C97.9232 63.6439 97.8884 63.6365 97.8562 63.6223C97.8239 63.6081 97.795 63.5874 97.7711 63.5615Z" fill="#693545"/>
<path fill-rule="evenodd" clip-rule="evenodd" d="M105.344 63.9429C103.841 61.5545 101.95 59.4309 99.7494 57.6586C99.2679 57.2572 98.7764 56.8688 98.2834 56.4792C97.7905 56.0911 97.2942 55.7058 96.7943 55.3234C94.462 53.5377 91.9932 51.8965 89.4646 50.3072C89.3885 50.2614 89.3328 50.1885 89.3088 50.1032C89.2847 50.018 89.2942 49.9268 89.3352 49.8482C89.3542 49.8099 89.3809 49.7758 89.4136 49.748C89.4463 49.7202 89.4842 49.6993 89.5252 49.6865C89.5663 49.6738 89.6095 49.6694 89.6522 49.6738C89.695 49.6781 89.7364 49.691 89.7739 49.7118C92.0099 50.8455 94.2373 51.9654 96.3348 53.2781C97.2579 53.844 98.1481 54.4614 99.0012 55.1275C99.8559 55.8131 100.662 56.5566 101.414 57.3528C103.201 59.2149 104.682 61.3451 105.805 63.6654C105.84 63.7291 105.85 63.8041 105.832 63.8747C105.813 63.9454 105.769 64.0063 105.706 64.0449C105.676 64.0629 105.642 64.0746 105.608 64.0792C105.573 64.0838 105.537 64.0813 105.503 64.0717C105.469 64.0622 105.438 64.0458 105.41 64.0237C105.383 64.0015 105.36 63.9741 105.344 63.9429V63.9429Z" fill="#693545"/>
<path fill-rule="evenodd" clip-rule="evenodd" d="M124.722 58.222C124.667 58.675 124.663 58.8942 124.61 59.1417C124.593 59.2652 124.556 59.3852 124.501 59.4971C124.433 59.5991 124.348 59.6888 124.251 59.7625C124.071 59.9167 123.883 60.0213 123.528 60.2712C123.506 60.3079 123.477 60.3398 123.442 60.3648C123.407 60.3898 123.367 60.4074 123.325 60.4165C123.283 60.4256 123.239 60.4261 123.197 60.4179C123.155 60.4097 123.115 60.3929 123.079 60.3687C123.007 60.317 122.957 60.2398 122.94 60.1529C122.923 60.0659 122.94 59.9757 122.987 59.9007C123.066 59.4612 123.081 59.2422 123.145 59.0082C123.168 58.8899 123.209 58.7759 123.268 58.6704C123.34 58.5739 123.428 58.4899 123.528 58.4216C123.719 58.2676 123.907 58.1704 124.274 57.925C124.292 57.8945 124.316 57.868 124.344 57.847C124.372 57.826 124.404 57.8111 124.439 57.803C124.473 57.7949 124.509 57.794 124.543 57.8002C124.578 57.8064 124.611 57.8196 124.641 57.839C124.701 57.8803 124.743 57.943 124.758 58.0143C124.773 58.0856 124.76 58.1599 124.722 58.222V58.222Z" fill="#693545"/>
<path fill-rule="evenodd" clip-rule="evenodd" d="M120.918 53.908C120.727 54.5561 120.572 55.1745 120.355 55.8123C120.273 56.0789 120.172 56.3396 120.055 56.5927C119.924 56.8355 119.777 57.069 119.615 57.2918C119.24 57.8357 118.84 58.32 118.452 58.8522C118.434 58.8912 118.408 58.926 118.376 58.9548C118.344 58.9835 118.307 59.0054 118.266 59.0193C118.226 59.0331 118.182 59.0386 118.14 59.0353C118.097 59.032 118.055 59.02 118.017 59.0001C117.939 58.9565 117.881 58.8848 117.855 58.8C117.829 58.7151 117.837 58.6235 117.876 58.544C118.064 57.8978 118.224 57.2758 118.449 56.6414C118.536 56.3753 118.641 56.1159 118.766 55.865C118.903 55.6234 119.058 55.3918 119.228 55.1721C119.622 54.6349 120.036 54.1636 120.453 53.643C120.468 53.6114 120.49 53.5834 120.517 53.5605C120.543 53.5376 120.574 53.5204 120.608 53.5099C120.642 53.4995 120.677 53.4959 120.712 53.4996C120.747 53.5032 120.781 53.5139 120.812 53.531C120.874 53.5684 120.92 53.6283 120.94 53.6984C120.96 53.7685 120.952 53.8435 120.918 53.908V53.908Z" fill="#693545"/>
<path fill-rule="evenodd" clip-rule="evenodd" d="M119.353 46.9405C118.001 49.2552 116.898 51.7055 116.063 54.2507C115.868 54.8203 115.683 55.3918 115.495 55.9637C115.307 56.5357 115.119 57.1074 114.932 57.6806C114.048 60.3764 113.329 63.1234 112.781 65.9063C112.775 65.9492 112.762 65.9906 112.74 66.0282C112.719 66.0657 112.69 66.0987 112.656 66.1251C112.621 66.1515 112.582 66.1709 112.54 66.1822C112.498 66.1934 112.455 66.1962 112.412 66.1905C112.325 66.1746 112.247 66.125 112.197 66.0526C112.146 65.9802 112.126 65.8908 112.141 65.8038C112.359 63.402 112.725 61.0158 113.235 58.6584C113.456 57.6443 113.728 56.6419 114.051 55.6551C114.386 54.6741 114.776 53.7124 115.218 52.7743C116.229 50.5984 117.469 48.5358 118.918 46.6212C118.937 46.5915 118.962 46.5661 118.991 46.5464C119.021 46.5267 119.053 46.5132 119.088 46.5068C119.123 46.5003 119.158 46.5011 119.193 46.509C119.227 46.5169 119.259 46.5317 119.288 46.5526C119.346 46.5971 119.385 46.6619 119.397 46.7339C119.409 46.8058 119.393 46.8797 119.353 46.9405V46.9405Z" fill="#693545"/>
<path fill-rule="evenodd" clip-rule="evenodd" d="M113.107 74.8136L116.716 65.0479C116.716 65.0479 111.837 67.8197 113.107 74.8136Z" fill="#E78E78"/>
<g opacity="0.38">
<path opacity="0.38" fill-rule="evenodd" clip-rule="evenodd" d="M158.286 188.125L153.589 183.422L159.019 191.007L158.286 188.125Z" fill="url(#paint10_linear_26_47)"/>
<path opacity="0.38" fill-rule="evenodd" clip-rule="evenodd" d="M152.883 185.311C152.883 185.311 153.491 191.426 149.856 190.685C146.222 189.943 145.236 185.517 145.236 185.517C145.236 185.517 144.718 191.526 141.233 191.128C137.749 190.73 135.691 186.211 135.691 186.211C135.691 186.211 139.152 191.828 142.182 190.09C144.222 188.919 144.44 182.224 144.44 182.224C144.44 182.224 147.05 189.295 149.897 189.447C152.743 189.598 152.883 185.311 152.883 185.311Z" fill="url(#paint11_linear_26_47)"/>
<path opacity="0.38" fill-rule="evenodd" clip-rule="evenodd" d="M64.6194 183.207C64.6194 183.207 63.6146 189.268 67.2893 188.771C70.9641 188.275 72.2359 183.924 72.2359 183.924C72.2359 183.924 72.3619 189.955 75.8645 189.791C79.367 189.626 81.7155 185.256 81.7155 185.256C81.7155 185.256 77.8954 190.629 74.9857 188.691C73.0267 187.387 73.2451 180.692 73.2451 180.692C73.2451 180.692 70.18 187.573 67.3297 187.534C64.4795 187.494 64.6194 183.207 64.6194 183.207Z" fill="url(#paint12_linear_26_47)"/>
<path opacity="0.38" fill-rule="evenodd" clip-rule="evenodd" d="M85.2989 184.296C85.2989 184.296 84.4543 189.731 87.4938 189.277C90.5333 188.823 91.5948 184.921 91.5948 184.921C91.5948 184.921 91.6853 190.326 94.5816 190.171C97.478 190.015 99.4297 186.092 99.4297 186.092C99.4297 186.092 96.259 190.917 93.8576 189.187C92.2407 188.022 92.4365 182.021 92.4365 182.021C92.4365 182.021 89.8866 188.196 87.53 188.168C85.1735 188.139 85.2989 184.296 85.2989 184.296Z" fill="url(#paint13_linear_26_47)"/>
</g>
<path opacity="0.38" fill-rule="evenodd" clip-rule="evenodd" d="M131.999 185.028C131.999 185.028 132.555 190.509 129.244 189.843C125.933 189.177 125.034 185.209 125.034 185.209C125.034 185.209 124.564 190.595 121.39 190.236C118.216 189.878 116.338 185.826 116.338 185.826C116.338 185.826 119.494 190.863 122.253 189.306C124.111 188.258 124.307 182.256 124.307 182.256C124.307 182.256 126.687 188.596 129.281 188.734C131.874 188.871 131.999 185.028 131.999 185.028Z" fill="url(#paint14_linear_26_47)"/>
<path fill-rule="evenodd" clip-rule="evenodd" d="M178.143 153.122C178.143 153.122 176.331 146.869 171.111 143.697C165.891 140.524 171.554 138.736 176.159 140.332C176.159 140.332 175.977 137.026 172.077 133.546C168.176 130.066 174.265 127.283 181.173 129.677C179.598 127.858 177.786 126.257 175.784 124.917C173.169 123.212 178.361 116.596 185.656 126.089C192.952 135.583 181.938 151.71 178.143 153.122Z" fill="url(#paint15_linear_26_47)"/>
</g>
<defs>
<linearGradient id="paint0_linear_26_47" x1="147.914" y1="55.4665" x2="160.143" y2="173.345" gradientUnits="userSpaceOnUse">
<stop stop-color="#D16C6D"/>
<stop offset="1" stop-color="#A6464B"/>
</linearGradient>
<linearGradient id="paint1_linear_26_47" x1="116.368" y1="47.5718" x2="107.817" y2="181.203" gradientUnits="userSpaceOnUse">
<stop stop-color="#D16C6D"/>
<stop offset="1" stop-color="#B36162"/>
</linearGradient>
<linearGradient id="paint2_linear_26_47" x1="116.368" y1="47.5718" x2="107.816" y2="181.203" gradientUnits="userSpaceOnUse">
<stop stop-color="#D16C6D"/>
<stop offset="1" stop-color="#B36162"/>
</linearGradient>
<linearGradient id="paint3_linear_26_47" x1="-77080.1" y1="31598.2" x2="-77080.2" y2="31599.8" gradientUnits="userSpaceOnUse">
<stop stop-color="#D16C6D"/>
<stop offset="1" stop-color="#B36162"/>
</linearGradient>
<linearGradient id="paint4_linear_26_47" x1="470.848" y1="1238.21" x2="426.293" y2="1238.21" gradientUnits="userSpaceOnUse">
<stop stop-color="#D16C6D"/>
<stop offset="1" stop-color="#B36162"/>
</linearGradient>
<linearGradient id="paint5_linear_26_47" x1="1462.92" y1="1163.93" x2="1027.75" y2="1149.49" gradientUnits="userSpaceOnUse">
<stop stop-color="#D16C6D"/>
<stop offset="1" stop-color="#B36162"/>
</linearGradient>
<linearGradient id="paint6_linear_26_47" x1="130076" y1="5423.05" x2="130511" y2="5437.49" gradientUnits="userSpaceOnUse">
<stop stop-color="#D16C6D"/>
<stop offset="1" stop-color="#B36162"/>
</linearGradient>
<linearGradient id="paint7_linear_26_47" x1="97625" y1="6516.87" x2="97922.3" y2="6526.73" gradientUnits="userSpaceOnUse">
<stop stop-color="#D16C6D"/>
<stop offset="1" stop-color="#B36162"/>
</linearGradient>
<linearGradient id="paint8_linear_26_47" x1="1958.62" y1="3296.58" x2="1597.51" y2="3284.6" gradientUnits="userSpaceOnUse">
<stop stop-color="#D16C6D"/>
<stop offset="1" stop-color="#B36162"/>
</linearGradient>
<linearGradient id="paint9_linear_26_47" x1="-77080.1" y1="31598.2" x2="-77080.2" y2="31599.8" gradientUnits="userSpaceOnUse">
<stop stop-color="#D16C6D"/>
<stop offset="1" stop-color="#B36162"/>
</linearGradient>
<linearGradient id="paint10_linear_26_47" x1="470.848" y1="1238.21" x2="426.293" y2="1238.21" gradientUnits="userSpaceOnUse">
<stop stop-color="#D16C6D"/>
<stop offset="1" stop-color="#B36162"/>
</linearGradient>
<linearGradient id="paint11_linear_26_47" x1="1462.92" y1="1163.93" x2="1027.75" y2="1149.49" gradientUnits="userSpaceOnUse">
<stop stop-color="#D16C6D"/>
<stop offset="1" stop-color="#B36162"/>
</linearGradient>
<linearGradient id="paint12_linear_26_47" x1="130076" y1="5423.05" x2="130511" y2="5437.49" gradientUnits="userSpaceOnUse">
<stop stop-color="#D16C6D"/>
<stop offset="1" stop-color="#B36162"/>
</linearGradient>
<linearGradient id="paint13_linear_26_47" x1="97625" y1="6516.87" x2="97922.3" y2="6526.73" gradientUnits="userSpaceOnUse">
<stop stop-color="#D16C6D"/>
<stop offset="1" stop-color="#B36162"/>
</linearGradient>
<linearGradient id="paint14_linear_26_47" x1="1958.62" y1="3296.58" x2="1597.51" y2="3284.6" gradientUnits="userSpaceOnUse">
<stop stop-color="#D16C6D"/>
<stop offset="1" stop-color="#B36162"/>
</linearGradient>
<linearGradient id="paint15_linear_26_47" x1="83538.7" y1="268441" x2="84429" y2="266364" gradientUnits="userSpaceOnUse">
<stop stop-color="#D16C6D"/>
<stop offset="1" stop-color="#B36162"/>
</linearGradient>
</defs>
</svg>
