<svg width="84" height="88" viewBox="0 0 84 88" fill="none" xmlns="http://www.w3.org/2000/svg">
<path d="M70.4313 75.0796H66.4212V69.3536C66.4212 68.9152 66.2438 68.4948 65.9281 68.1848C65.6124 67.8748 65.1842 67.7006 64.7377 67.7006H48.0879V17.3209H54.2259C54.6724 17.3209 55.1006 17.1467 55.4163 16.8367C55.7321 16.5268 55.9094 16.1063 55.9094 15.6679C55.9094 15.2295 55.7321 14.8091 55.4163 14.4991C55.1006 14.1891 54.6724 14.0149 54.2259 14.0149H48.7074C49.7608 12.7626 50.4297 11.2419 50.636 9.63034C50.8423 8.0188 50.5775 6.38289 49.8725 4.91354C49.1676 3.44419 48.0516 2.20201 46.6547 1.33199C45.2578 0.461977 43.6377 0 41.9835 0C40.3293 0 38.7092 0.461977 37.3123 1.33199C35.9155 2.20201 34.7994 3.44419 34.0945 4.91354C33.3895 6.38289 33.1247 8.0188 33.331 9.63034C33.5374 11.2419 34.2062 12.7626 35.2596 14.0149H29.8522C29.4057 14.0149 28.9775 14.1891 28.6618 14.4991C28.3461 14.8091 28.1687 15.2295 28.1687 15.6679C28.1687 16.1063 28.3461 16.5268 28.6618 16.8367C28.9775 17.1467 29.4057 17.3209 29.8522 17.3209H35.8791V67.7006H19.6872C19.2407 67.7006 18.8125 67.8748 18.4968 68.1848C18.1811 68.4948 18.0037 68.9152 18.0037 69.3536V75.0796H14.1249C13.6784 75.0796 13.2502 75.2537 12.9345 75.5637C12.6188 75.8737 12.4414 76.2941 12.4414 76.7325V85.3512C12.4414 85.7896 12.6188 86.2101 12.9345 86.52C13.2502 86.83 13.6784 87.0042 14.1249 87.0042H70.4313C70.8778 87.0042 71.306 86.83 71.6217 86.52C71.9375 86.2101 72.1148 85.7896 72.1148 85.3512V76.7325C72.1148 76.2941 71.9375 75.8737 71.6217 75.5637C71.306 75.2537 70.8778 75.0796 70.4313 75.0796ZM41.9734 3.31018C43.0322 3.31018 44.0673 3.61847 44.9477 4.19606C45.828 4.77365 46.5142 5.5946 46.9194 6.5551C47.3246 7.5156 47.4306 8.57251 47.2241 9.59217C47.0175 10.6118 46.5076 11.5484 45.7589 12.2836C45.0102 13.0187 44.0563 13.5193 43.0178 13.7222C41.9793 13.925 40.9029 13.8209 39.9247 13.423C38.9465 13.0252 38.1104 12.3515 37.5221 11.487C36.9339 10.6226 36.6199 9.60631 36.6199 8.56668C36.6207 7.17284 37.1851 5.83633 38.1889 4.85074C39.1927 3.86514 40.5538 3.31106 41.9734 3.31018ZM44.7108 17.3209V67.2742H39.2461V17.3209H44.7108ZM68.7377 83.6982H15.8084V78.3855H51.704C52.1505 78.3855 52.5787 78.2114 52.8945 77.9014C53.2102 77.5914 53.3876 77.1709 53.3876 76.7325C53.3876 76.2941 53.2102 75.8737 52.8945 75.5637C52.5787 75.2537 52.1505 75.0796 51.704 75.0796H21.3707V71.0066H63.0542V76.7325C63.0542 77.1709 63.2316 77.5914 63.5473 77.9014C63.863 78.2114 64.2912 78.3855 64.7377 78.3855H68.7478L68.7377 83.6982Z" fill="url(#paint0_linear_2_437)"/>
<path d="M25.4242 36.3468L15.9697 17.3011H20.6835C21.13 17.3011 21.5582 17.1269 21.8739 16.8169C22.1896 16.507 22.367 16.0865 22.367 15.6481C22.367 15.2097 22.1896 14.7893 21.8739 14.4793C21.5582 14.1693 21.13 13.9951 20.6835 13.9951H5.88552C5.43902 13.9951 5.01082 14.1693 4.6951 14.4793C4.37939 14.7893 4.20201 15.2097 4.20201 15.6481C4.20201 16.0865 4.37939 16.507 4.6951 16.8169C5.01082 17.1269 5.43902 17.3011 5.88552 17.3011H10.4781L0.111096 36.3468H0V37.9998C0 45.3225 5.96295 51.746 12.7609 51.746C19.5589 51.746 25.5219 45.3225 25.5219 37.9998V36.3468H25.4242ZM13.2121 19.2913L21.6767 36.3468H3.92592L13.2121 19.2913ZM12.7609 48.4401C7.97979 48.4401 4.27272 44.0828 3.51178 39.6528H22.0101C21.2492 44.0828 17.5421 48.4401 12.7609 48.4401V48.4401Z" fill="url(#paint1_linear_2_437)"/>
<path d="M25.5256 17.4961C26.552 17.4961 27.3842 16.6791 27.3842 15.6712C27.3842 14.6633 26.552 13.8463 25.5256 13.8463C24.4991 13.8463 23.667 14.6633 23.667 15.6712C23.667 16.6791 24.4991 17.4961 25.5256 17.4961Z" fill="#9B7591"/>
<path d="M83.9027 36.4228L74.4481 17.3771H79.1619C79.6084 17.3771 80.0366 17.2029 80.3523 16.8929C80.668 16.5829 80.8454 16.1625 80.8454 15.7241C80.8454 15.2857 80.668 14.8653 80.3523 14.5553C80.0366 14.2453 79.6084 14.0711 79.1619 14.0711H64.3639C63.9174 14.0711 63.4892 14.2453 63.1735 14.5553C62.8578 14.8653 62.6804 15.2857 62.6804 15.7241C62.6804 16.1625 62.8578 16.5829 63.1735 16.8929C63.4892 17.2029 63.9174 17.3771 64.3639 17.3771H68.9565L58.5895 36.4228H58.4717V38.0758C58.4717 45.3985 64.438 51.822 71.236 51.822C78.034 51.822 83.997 45.3985 83.997 38.0758V36.4228H83.9027ZM71.6905 19.3805L80.1552 36.436H62.4077L71.6905 19.3805ZM71.2394 48.5293C66.4582 48.5293 62.7511 44.172 61.9868 39.742H80.5053C79.7276 44.1753 76.0205 48.516 71.2394 48.516V48.5293Z" fill="url(#paint2_linear_2_437)"/>
<path d="M59.3937 17.5689C60.4202 17.5689 61.2523 16.7518 61.2523 15.744C61.2523 14.7361 60.4202 13.9191 59.3937 13.9191C58.3673 13.9191 57.5352 14.7361 57.5352 15.744C57.5352 16.7518 58.3673 17.5689 59.3937 17.5689Z" fill="#9B7591"/>
<path d="M57.7775 79.179C58.804 79.179 59.6361 78.3619 59.6361 77.3541C59.6361 76.3462 58.804 75.5292 57.7775 75.5292C56.7511 75.5292 55.9189 76.3462 55.9189 77.3541C55.9189 78.3619 56.7511 79.179 57.7775 79.179Z" fill="url(#paint3_linear_2_437)"/>
<defs>
<linearGradient id="paint0_linear_2_437" x1="42.2781" y1="0" x2="42.2781" y2="87.0042" gradientUnits="userSpaceOnUse">
<stop stop-color="#9B7591"/>
<stop offset="1" stop-color="#454F81"/>
</linearGradient>
<linearGradient id="paint1_linear_2_437" x1="12.7609" y1="13.9951" x2="12.7609" y2="51.746" gradientUnits="userSpaceOnUse">
<stop stop-color="#9B7591"/>
<stop offset="1" stop-color="#454F81"/>
</linearGradient>
<linearGradient id="paint2_linear_2_437" x1="71.2343" y1="14.0711" x2="71.2343" y2="51.822" gradientUnits="userSpaceOnUse">
<stop stop-color="#9B7591"/>
<stop offset="1" stop-color="#454F81"/>
</linearGradient>
<linearGradient id="paint3_linear_2_437" x1="57.7775" y1="75.5292" x2="57.7775" y2="79.179" gradientUnits="userSpaceOnUse">
<stop stop-color="#9B7591"/>
<stop offset="1" stop-color="#454F81"/>
</linearGradient>
</defs>
</svg>
