<svg width="95" height="95" viewBox="0 0 95 95" fill="none" xmlns="http://www.w3.org/2000/svg">
<path fill-rule="evenodd" clip-rule="evenodd" d="M87.7637 95H7.23633C7.17297 94.978 7.11009 94.9537 7.04721 94.9294C6.91203 94.8771 6.77685 94.8249 6.63691 94.795C3.26797 94.0765 1.1818 92.0129 0.261942 88.7216C0.200734 88.5026 0.141623 88.2831 0.0825118 88.0635C0.055078 87.9615 0.0276439 87.8596 0 87.7578V82.3725C0.580241 80.9263 1.77525 80.9179 2.98674 80.9094C3.24473 80.9076 3.50348 80.9057 3.75719 80.89L3.75717 80.4264L3.7572 79.6018C3.75851 75.3981 3.75937 71.1943 3.76023 66.9906V66.9896C3.76248 56.0303 3.76472 45.071 3.7749 34.1118C3.77923 29.4518 6.56818 25.4582 10.9941 24.8586C14.1916 24.4254 17.4609 24.4816 20.7198 24.5376C21.579 24.5523 22.4376 24.5671 23.2939 24.5728C24.5531 24.5813 25.199 25.9636 24.6682 27.0495C24.2588 27.8871 23.5132 28.0898 22.6576 28.0884C19.5346 28.0836 16.4116 28.0836 13.2887 28.0874C9.71107 28.0919 7.36236 30.4316 7.36293 33.9982C7.36471 45.1653 7.36839 56.3325 7.37207 67.4997L7.37604 79.8596L7.37605 80.8512H11.179L11.179 80.3968L11.1791 79.5678L11.1818 70.6508C11.1854 58.6764 11.189 46.702 11.1928 34.7275C11.1935 32.4349 11.6974 31.9232 13.9537 31.9232L42.163 31.9229L51.7075 31.9229H52.8988C52.6737 31.5746 52.4535 31.2443 52.2404 30.9247L52.2404 30.9246C51.7544 30.1957 51.3053 29.5219 50.9172 28.8146C50.5976 28.2324 50.2225 28.0695 49.5983 28.0749C46.9474 28.0977 44.2962 28.0927 41.6451 28.0877L40.3223 28.0853C38.8776 28.083 38.0902 27.4561 38.079 26.3211C38.0673 25.1407 38.8594 24.5041 40.3622 24.4989C41.4175 24.4953 42.4727 24.4961 43.528 24.497C43.9878 24.4973 44.4477 24.4977 44.9075 24.4977L49.0809 24.4977C49.0541 24.3405 49.0288 24.1945 49.0048 24.056C48.9541 23.7639 48.9093 23.5051 48.8682 23.2458C48.8509 23.1365 48.8325 23.0273 48.8141 22.9181C48.7605 22.6008 48.7069 22.2832 48.6809 21.9636C48.1757 15.7373 50.3238 10.5281 54.8961 6.36575C62.9781 -0.991532 75.6679 -2.09101 85.0532 3.69243C89.859 6.65394 93.1854 10.7547 94.488 16.3443C94.6303 16.9549 94.7384 17.5734 94.8466 18.192C94.8966 18.4781 94.9466 18.7641 95 19.0494V21.0921C94.9774 21.1656 94.9503 21.2387 94.9232 21.3117C94.8648 21.4691 94.8064 21.6264 94.7932 21.7874C94.5776 24.4221 93.8043 26.8986 92.3765 29.1002C91.4447 30.5372 90.6376 31.8881 91.2132 33.6724C91.2815 33.8841 91.2636 34.1237 91.2457 34.3632C91.2375 34.4726 91.2294 34.582 91.2294 34.6886L91.243 79.6963L91.243 80.4903L91.243 80.9326C91.4003 80.9308 91.5574 80.9267 91.7136 80.9226L91.7143 80.9226C93.0768 80.8869 94.3618 80.8532 95 82.3725V87.7578C94.9777 87.8209 94.9532 87.8835 94.9286 87.9461C94.8757 88.0808 94.8228 88.2154 94.7931 88.355C94.0759 91.7265 92.0195 93.82 88.7275 94.739C88.5088 94.8 88.2894 94.8588 88.0701 94.9176L87.9194 94.9581L87.7637 95ZM48.4766 67.1854C48.5362 67.207 48.5934 67.2293 48.6493 67.2512C48.7653 67.2965 48.8756 67.3396 48.9894 67.3694C55.8445 69.1652 60.3811 73.4262 62.5395 80.1842C62.7426 80.8203 63.0605 80.9476 63.6655 80.945C67.3514 80.9295 71.0374 80.93 74.7233 80.9306C76.2324 80.9308 77.7415 80.9311 79.2507 80.9302C79.4538 80.9301 79.6569 80.9154 79.8563 80.901L79.8566 80.901L79.8571 80.9009C79.9485 80.8943 80.0391 80.8878 80.1285 80.8828V38.9172C80.075 38.9111 80.0324 38.904 79.9971 38.8981C79.9367 38.8881 79.8979 38.8816 79.8625 38.8898C79.7088 38.9252 79.5572 38.9695 79.4056 39.0137L79.4053 39.0138L79.3285 39.0361C74.7868 40.3535 70.2087 40.5195 65.6073 39.4061C64.9797 39.2542 64.6162 39.3631 64.1723 39.8325C61.4964 42.6618 57.5157 43.37 54.0612 41.6883C53.3224 41.3286 52.6329 40.9406 52.5447 39.9883C52.4529 38.9965 53.0335 38.4755 53.7915 38.01C54.7151 37.4427 55.4566 36.6904 55.9586 35.5794H14.8681V80.9327C15.1418 80.9327 15.4079 80.9278 15.6685 80.923H15.6688C16.2501 80.9123 16.8041 80.9021 17.3534 80.9479C18.0649 81.0073 18.3643 80.7499 18.5819 80.0691C20.5678 73.8559 24.6819 69.7411 30.8803 67.719C31.2706 67.5917 31.6645 67.4758 32.0639 67.3582L32.0641 67.3582L32.0642 67.3581L32.0648 67.3579C32.2521 67.3028 32.4406 67.2473 32.6304 67.1902C32.4414 66.9051 32.2481 66.6315 32.0583 66.3629C31.6369 65.7665 31.2325 65.1942 30.9293 64.5724C30.4747 63.64 29.9771 62.6175 29.9335 61.6155C29.9085 61.0403 29.8807 60.4642 29.8528 59.8877L29.8528 59.8865C29.7045 56.814 29.5555 53.7281 29.8223 50.6851C30.307 45.1575 35.5363 40.9569 40.9712 41.2879C46.8587 41.6465 51.2839 46.1522 51.3727 51.9063C51.3862 52.7775 51.3788 53.6493 51.3715 54.521C51.3608 55.7855 51.3501 57.0499 51.403 58.3118C51.5383 61.5418 50.7697 64.4351 48.5858 66.8838C48.5512 66.9226 48.5361 66.9787 48.5166 67.0514C48.5059 67.0912 48.4939 67.1359 48.4766 67.1854ZM58.3086 38.9738C60.0826 38.8344 61.361 37.9589 62.2943 36.4908C62.9807 35.411 63.5779 35.2208 64.7998 35.5126C65.0606 35.5748 65.3214 35.6389 65.5824 35.7031L65.5825 35.7031C66.7282 35.9846 67.8777 36.2671 69.0419 36.3987C75.139 37.0879 80.7298 35.7435 85.5207 31.8078C93.2224 25.4807 93.3528 15.1464 85.8649 8.60655C82.6296 5.78085 78.8266 4.2169 74.5716 3.73362C68.3667 3.02887 62.6715 4.34362 57.8649 8.42659C53.0488 12.5177 50.9813 17.7006 52.6879 23.9977C53.6715 27.6272 55.9561 30.3945 58.9584 32.5973C60.0854 33.4242 60.306 33.8877 59.8712 35.2068C59.5888 36.0634 59.2218 36.892 58.8368 37.7611C58.6623 38.1549 58.4842 38.557 58.3086 38.9738ZM3.66615 84.5994C3.66615 84.8131 3.67069 85.0165 3.67508 85.2126C3.6841 85.6164 3.69243 85.9895 3.65907 86.3589C3.39172 89.3188 5.75116 91.3838 8.63476 91.3684C19.9699 91.3076 31.3054 91.3158 42.641 91.3241L42.672 91.3241C46.598 91.3269 50.5239 91.3298 54.4499 91.3298C57.2081 91.3297 59.9664 91.3299 62.7246 91.3301C70.7556 91.3307 78.7865 91.3313 86.8175 91.3266C89.0708 91.3252 90.9062 89.8996 91.2478 87.7547C91.3584 87.06 91.3304 86.3431 91.3018 85.6125V85.6124V85.6123V85.6122C91.2887 85.2772 91.2755 84.9393 91.2755 84.5994H3.66615ZM59.0274 80.8917C58.9624 80.7135 58.9052 80.5487 58.8514 80.3938L58.8513 80.3936C58.7451 80.0879 58.6521 79.8201 58.5389 79.5611C55.9385 73.6118 50.2102 69.9546 42.8993 70.474C42.6891 70.4889 42.3581 70.8477 42.3348 71.0723C42.2899 71.5058 42.2935 71.9437 42.2971 72.3822V72.3823V72.3824V72.3825C42.2997 72.6873 42.3022 72.9922 42.2884 73.296C42.2416 74.3264 41.4612 75.0715 40.5044 75.0444C39.5728 75.018 38.8433 74.298 38.7984 73.3111C38.7845 73.0057 38.787 72.6992 38.7895 72.3929V72.3928V72.3927V72.3926C38.7932 71.9557 38.7968 71.5193 38.7527 71.0873C38.7294 70.8586 38.4065 70.4877 38.203 70.4754C32.9395 70.1558 28.3882 71.6929 24.878 75.7759C23.6072 77.2541 22.6318 78.9174 22.0949 80.8917H59.0274ZM86.6572 35.4216L86.6571 35.4217L86.6569 35.4218C85.9753 35.8812 85.341 36.3086 84.6751 36.679C84.0298 37.0379 83.7891 37.4477 83.7907 38.2022C83.8144 49.6699 83.8169 61.1377 83.8194 72.6055C83.8199 75.0242 83.8204 77.4429 83.8211 79.8616L83.8212 80.8508H87.5996V34.7934C87.2728 35.0068 86.9621 35.2161 86.6607 35.4193L86.6599 35.4198L86.6572 35.4216ZM47.7305 57.8428C45.8643 57.7965 44.0973 57.3585 42.5499 56.2121C42.4204 56.1162 42.0643 56.1808 41.9027 56.2961C40.1006 57.582 38.065 57.8539 35.9187 57.8205C32.8958 57.7734 32.8953 57.8086 33.3566 60.8351C33.9461 64.7015 37.9555 67.5124 41.8362 66.7568C45.9894 65.9481 48.4919 62.0678 47.7305 57.8428ZM47.8807 54.3232C47.8807 54.0208 47.8833 53.7442 47.8858 53.4848C47.8907 52.9723 47.8949 52.5269 47.877 52.0825C47.6831 47.2654 43.4531 43.9053 38.8484 45.0342C34.7969 46.0275 32.825 49.536 33.2421 53.757C33.2586 53.9235 33.6548 54.1711 33.8806 54.1784C35.1155 54.2183 36.3533 54.2226 37.5884 54.185C38.7255 54.1505 39.6825 53.6523 40.4184 52.7997C40.6501 52.5312 40.8319 52.2202 41.014 51.9087L41.014 51.9087L41.0141 51.9086C41.1136 51.7384 41.2132 51.5681 41.321 51.4045C41.8102 50.6625 42.5203 50.4429 43.3424 50.6652C44.1581 50.8857 44.6512 51.506 44.5281 52.3155C44.3829 53.2697 44.8964 53.6344 45.6028 53.8537C46.0671 53.9978 46.5498 54.0827 47.0867 54.1772L47.0868 54.1772L47.0868 54.1772L47.0869 54.1772C47.3384 54.2214 47.6017 54.2677 47.8807 54.3232ZM61.974 21.792C62.9304 21.792 63.7057 21.0147 63.7057 20.0558C63.7057 19.0969 62.9304 18.3196 61.974 18.3196C61.0175 18.3196 60.2422 19.0969 60.2422 20.0558C60.2422 21.0147 61.0175 21.792 61.974 21.792ZM33.1833 26.2949C33.1833 27.2538 32.4079 28.0311 31.4515 28.0311C30.4951 28.0311 29.7197 27.2538 29.7197 26.2949C29.7197 25.336 30.4951 24.5587 31.4515 24.5587C32.4079 24.5587 33.1833 25.336 33.1833 26.2949ZM71.7533 21.792C72.7097 21.792 73.485 21.0147 73.485 20.0558C73.485 19.0969 72.7097 18.3196 71.7533 18.3196C70.7968 18.3196 70.0215 19.0969 70.0215 20.0558C70.0215 21.0147 70.7968 21.792 71.7533 21.792ZM83.2634 20.0558C83.2634 21.0147 82.488 21.792 81.5316 21.792C80.5751 21.792 79.7998 21.0147 79.7998 20.0558C79.7998 19.0969 80.5751 18.3196 81.5316 18.3196C82.488 18.3196 83.2634 19.0969 83.2634 20.0558Z" fill="url(#paint0_linear_2_380)"/>
<defs>
<linearGradient id="paint0_linear_2_380" x1="47.5" y1="0" x2="47.5" y2="95" gradientUnits="userSpaceOnUse">
<stop offset="0.354167" stop-color="#9A7490"/>
<stop offset="0.932292" stop-color="#4C5183"/>
</linearGradient>
</defs>
</svg>
