<svg width="80" height="80" viewBox="0 0 80 80" fill="none" xmlns="http://www.w3.org/2000/svg">
<path d="M39.726 9.50671C23.041 9.50671 9.4679 23.1402 9.4679 39.8995C9.4679 56.6589 23.041 70.2924 39.726 70.2924C56.411 70.2924 69.9841 56.6589 69.9841 39.8995C69.9841 23.1402 56.4077 9.50671 39.726 9.50671ZM39.726 65.6186C25.6084 65.6186 14.121 54.08 14.121 39.8995C14.121 25.7191 25.6084 14.1805 39.726 14.1805C53.8436 14.1805 65.331 25.7191 65.331 39.8995C65.331 54.08 53.8436 65.6186 39.726 65.6186Z" fill="url(#paint0_linear_2_389)"/>
<path d="M46.7088 32.8624C46.7088 34.1551 47.7516 35.1993 49.0353 35.1993C50.319 35.1993 51.3619 34.1518 51.3619 32.8624C51.3619 30.2735 50.0286 27.7842 47.7054 26.034C46.1181 24.8374 44.1645 24.0385 42.0524 23.6971V21.1712C42.0524 19.8785 41.0096 18.8344 39.7259 18.8344C38.4422 18.8344 37.3994 19.8818 37.3994 21.1712V23.6971C35.2874 24.0385 33.3337 24.8374 31.7464 26.034C29.4232 27.7842 28.09 30.2735 28.09 32.8624C28.09 35.4512 29.4232 37.9405 31.7464 39.6907C33.3337 40.8874 35.2874 41.6862 37.3994 42.0276V51.289C34.7164 50.6294 32.743 48.8825 32.743 46.8904C32.743 45.5976 31.7002 44.5535 30.4165 44.5535C29.1328 44.5535 28.09 45.6009 28.09 46.8904C28.09 49.4792 29.4232 51.9686 31.7464 53.7187C33.3337 54.9154 35.2874 55.7142 37.3994 56.0556V58.6047C37.3994 59.8974 38.4422 60.9416 39.7259 60.9416C41.0096 60.9416 42.0524 59.8941 42.0524 58.6047V56.0556C44.1645 55.7142 46.1181 54.9154 47.7054 53.7187C50.0286 51.9686 51.3619 49.4792 51.3619 46.8904C51.3619 44.3015 50.0286 41.8122 47.7054 40.062C46.1181 38.8654 44.1645 38.0665 42.0524 37.7251V28.4637C44.7321 29.1233 46.7088 30.8735 46.7088 32.8624ZM32.743 32.8624C32.743 30.8702 34.7164 29.1233 37.3994 28.4637V37.2577C34.7164 36.6014 32.743 34.8545 32.743 32.8624ZM46.7088 46.8904C46.7088 48.8825 44.7354 50.6294 42.0524 51.289V42.495C44.7321 43.1513 46.7088 44.8982 46.7088 46.8904Z" fill="url(#paint1_linear_2_389)"/>
<path d="M14.4012 14.6611C15.7171 14.6611 16.7838 13.5896 16.7838 12.2679C16.7838 10.9461 15.7171 9.87463 14.4012 9.87463C13.0853 9.87463 12.0186 10.9461 12.0186 12.2679C12.0186 13.5896 13.0853 14.6611 14.4012 14.6611Z" fill="url(#paint2_linear_2_389)"/>
<path d="M67.7829 11.7176C60.2588 4.16 50.296 0 39.7259 0C32.446 0 25.4532 1.98221 19.3482 5.68478C18.7244 6.12895 17.6024 7.20956 18.5099 8.82715C19.5099 10.6105 21.7176 9.64589 22.4601 9.25144C22.5129 9.2216 22.569 9.19177 22.6251 9.16194C22.6812 9.12879 22.7109 9.11222 22.7109 9.11222V9.11553C27.7534 6.29137 33.5548 4.6771 39.7259 4.6771C59.0642 4.6771 74.7955 20.4785 74.7955 39.9028C74.7955 59.3272 59.0642 75.1285 39.7259 75.1285C20.3877 75.1285 4.65636 59.3272 4.65636 39.9028C4.65636 31.8745 7.34589 24.4661 11.867 18.5327V18.5294C11.867 18.5294 12.8834 16.3417 10.7944 15.2909C9.50412 14.6445 8.47781 15.4268 7.9102 16.0699C2.77534 22.9347 0 31.2149 0 39.8995C0 50.5166 4.14485 60.5238 11.6657 68.0814C19.1897 75.639 29.1526 79.799 39.7226 79.799C50.2927 79.799 60.2555 75.6357 67.7796 68.0814C75.3037 60.5238 79.4452 50.5166 79.4452 39.8995C79.4452 29.2824 75.307 19.2752 67.7829 11.7176Z" fill="url(#paint3_linear_2_389)"/>
<defs>
<linearGradient id="paint0_linear_2_389" x1="39.0924" y1="4.97636" x2="41.7917" y2="152.777" gradientUnits="userSpaceOnUse">
<stop stop-color="#9A7490"/>
<stop offset="0.0907" stop-color="#97728F"/>
<stop offset="0.1869" stop-color="#8E6E8E"/>
<stop offset="0.2856" stop-color="#7E668B"/>
<stop offset="0.3861" stop-color="#675C87"/>
<stop offset="0.487" stop-color="#495082"/>
<stop offset="0.4973" stop-color="#454F81"/>
<stop offset="0.9824" stop-color="#23254D"/>
</linearGradient>
<linearGradient id="paint1_linear_2_389" x1="39.0928" y1="4.97629" x2="41.792" y2="152.778" gradientUnits="userSpaceOnUse">
<stop stop-color="#9A7490"/>
<stop offset="0.0907" stop-color="#97728F"/>
<stop offset="0.1869" stop-color="#8E6E8E"/>
<stop offset="0.2856" stop-color="#7E668B"/>
<stop offset="0.3861" stop-color="#675C87"/>
<stop offset="0.487" stop-color="#495082"/>
<stop offset="0.4973" stop-color="#454F81"/>
<stop offset="0.9824" stop-color="#23254D"/>
</linearGradient>
<linearGradient id="paint2_linear_2_389" x1="14.2762" y1="5.42952" x2="16.9754" y2="153.231" gradientUnits="userSpaceOnUse">
<stop stop-color="#9A7490"/>
<stop offset="0.0907" stop-color="#97728F"/>
<stop offset="0.1869" stop-color="#8E6E8E"/>
<stop offset="0.2856" stop-color="#7E668B"/>
<stop offset="0.3861" stop-color="#675C87"/>
<stop offset="0.487" stop-color="#495082"/>
<stop offset="0.4973" stop-color="#454F81"/>
<stop offset="0.9824" stop-color="#23254D"/>
</linearGradient>
<linearGradient id="paint3_linear_2_389" x1="39.0923" y1="4.97632" x2="41.7916" y2="152.778" gradientUnits="userSpaceOnUse">
<stop stop-color="#9A7490"/>
<stop offset="0.0907" stop-color="#97728F"/>
<stop offset="0.1869" stop-color="#8E6E8E"/>
<stop offset="0.2856" stop-color="#7E668B"/>
<stop offset="0.3861" stop-color="#675C87"/>
<stop offset="0.487" stop-color="#495082"/>
<stop offset="0.4973" stop-color="#454F81"/>
<stop offset="0.9824" stop-color="#23254D"/>
</linearGradient>
</defs>
</svg>
