<svg width="154" height="138" viewBox="0 0 154 138" fill="none" xmlns="http://www.w3.org/2000/svg">
<ellipse opacity="0.3" cx="69.056" cy="69" rx="69.056" ry="69" fill="#959AC5"/>
<path fill-rule="evenodd" clip-rule="evenodd" d="M150.816 60.1936C150.816 57.1296 141.151 45.526 138.029 37.6226C136.937 34.8578 135.257 23.5525 133.473 23.1829C127.894 22.0262 128.99 33.1682 126.93 42.8151C123.979 56.6305 117.906 74.2745 103.149 74.8045C95.5936 75.0758 92.6396 85.1216 91.9254 87.8978C88.468 101.335 88.5437 113.211 95.5045 115.585C95.6239 115.626 95.7446 115.659 95.8644 115.697C95.7116 115.913 95.623 116.168 95.6088 116.432C95.5889 116.572 95.5996 116.715 95.6401 116.852C95.6806 116.988 95.7499 117.113 95.8434 117.22C95.9369 117.327 96.0524 117.413 96.1819 117.471C96.3115 117.529 96.4521 117.559 96.5941 117.558C101.05 117.295 105.482 117.754 109.972 116.859C110.61 116.733 115.45 115.216 116.468 114.534C116.703 114.39 116.897 114.188 117.03 113.947C117.164 113.706 117.234 113.435 117.232 113.16C117.228 113.002 117.195 112.847 117.136 112.701C121.853 110.922 126.179 108.244 129.874 104.816C131.077 103.69 132.277 102.532 133.431 101.339C133.656 101.102 133.866 100.851 134.06 100.587C134.169 100.408 134.231 100.204 134.242 99.9949C134.253 99.7856 134.213 99.5767 134.124 99.3866C134.113 99.3614 134.098 99.3336 134.082 99.3052C137.644 96.2454 141.036 92.9933 144.243 89.5635C145.448 88.2099 147.244 86.3275 147.835 84.4685C147.888 84.2241 147.92 83.9756 147.93 83.7256C147.928 83.5258 147.862 83.3318 147.742 83.1721C147.622 83.0123 147.454 82.8951 147.262 82.8375C149.476 75.1657 150.816 71.4014 150.816 60.1936Z" fill="#C9696A"/>
<path fill-rule="evenodd" clip-rule="evenodd" d="M138.121 38.7987C138.121 38.7987 137.014 45.8164 131.81 49.958C126.606 54.0995 134.725 55.0268 139.48 52.6761C139.48 52.6761 137.447 55.3952 133.709 59.6915C129.971 63.9877 133.901 67.7405 144.576 63.7835C143.123 65.9667 141.384 67.9455 139.405 69.6669C136.814 71.867 145.554 75.1019 152.14 63.8335C158.726 52.565 145.195 37.955 138.121 38.7987Z" fill="url(#paint0_linear_2_459)"/>
<mask id="mask0_2_459" style="mask-type:alpha" maskUnits="userSpaceOnUse" x="0" y="0" width="139" height="138">
<ellipse cx="69.056" cy="69" rx="69.056" ry="69" fill="#959AC5"/>
</mask>
<g mask="url(#mask0_2_459)">
<path d="M14.0628 65.7218C14.4872 59.4727 15.0715 53.2675 15.891 47.0215C19.7327 17.76 39.7933 4.17532 61.2078 4.14534C90.5297 4.10429 107.675 19.845 111.406 55.8164C112.082 58.4544 113.032 61.0425 113.735 63.6549C114.03 64.7518 114.34 65.8381 114.555 66.9607C114.737 67.9171 114.804 68.3704 114.819 68.5426C114.836 68.704 114.828 68.867 114.796 69.0261C114.698 69.499 115.986 70.033 115.82 70.1387C115.568 70.3019 123.641 82.9718 115.174 81.0139C121.479 91.0514 119.8 100.498 116.418 94.6302C121.491 120.866 116.785 114.156 116.875 114.164C116.762 113.135 118.879 131.809 120.682 136.09C120.801 136.962 120.873 137.841 120.952 138.719C120.949 138.695 120.939 138.622 120.939 138.622C120.939 138.622 120.933 139.32 120.907 139.397C120.833 139.65 120.674 139.87 120.456 140.018C120.337 140.105 120.197 140.159 120.051 140.175C119.905 140.191 119.757 140.169 119.622 140.111C119.429 140.036 119.264 139.901 119.153 139.725L119.092 139.635C119.61 141.992 120.185 144.335 120.74 146.694C121.145 148.411 121.517 150.14 121.895 151.865L122.233 153.411C122.255 153.467 122.444 153.959 122.491 154.145C122.555 154.389 122.565 154.644 122.519 154.892C122.493 155.055 122.434 155.211 122.344 155.35C122.255 155.49 122.137 155.609 121.999 155.7C121.869 155.792 121.716 155.848 121.557 155.86C121.398 155.873 121.238 155.843 121.095 155.772C120.713 155.604 120.36 155.375 120.051 155.094C120.871 158.427 120.999 183.338 122.214 187.693C123.176 192.577 119.852 190.697 119.852 190.697L120.441 194.291L74.6427 193.912L74.8539 192.221C70.6287 195.693 71.5031 191.186 71.5031 191.186L69.5701 178.197L61.1248 177.909L58.1243 189.545C59.0601 193.941 56.0239 193.577 56.0239 193.577H9.67652L10.2917 189.674C8.41276 189.834 8.08357 188.196 8.11862 186.91C8.15699 186.061 8.34571 185.227 8.67601 184.444C9.80841 181.451 10.6207 178.347 11.0994 175.183C7.57129 177.05 8.53864 172.258 8.54888 172.199C8.90557 170.063 9.48087 167.981 9.86568 165.852C10.4576 162.568 11.0252 159.27 11.6248 155.984C12.8406 131.391 12.6744 110.582 13.049 91.2347C12.852 91.4919 12.6245 91.7243 12.3714 91.9267C12.1406 92.1309 11.8562 92.2647 11.5517 92.3123C11.2472 92.36 10.9354 92.3195 10.6532 92.1956C10.3563 92.0061 10.125 91.7298 9.99078 91.4044C9.85652 91.0789 9.82578 90.72 9.90273 90.3765C10.2135 88.7732 10.6569 87.1985 11.2285 85.6686C12.0224 83.3901 12.7371 81.1193 13.3469 78.8121C13.0666 79.0459 12.7081 79.165 12.3436 79.1453C11.979 79.1257 11.6354 78.9689 11.3819 78.7064C11.1276 78.4508 10.9531 78.1269 10.8795 77.7741C10.7689 77.1307 10.7837 76.472 10.9229 75.8341C11.3563 74.0178 11.9033 72.2305 12.5606 70.4826C13.0439 68.8916 13.5629 67.3097 14.0628 65.7218ZM118.417 145.853C118.589 146.7 118.779 147.532 118.992 148.327L119.03 148.47C118.945 148.094 118.858 147.718 118.77 147.342C118.653 146.845 118.536 146.349 118.417 145.853Z" fill="url(#paint1_linear_2_459)"/>
<path fill-rule="evenodd" clip-rule="evenodd" d="M11.9844 136.536C11.9844 136.536 8.85873 157.275 16.1295 153.191C23.4001 149.104 26.1116 145.475 26.1116 145.475C26.1116 145.475 25.144 158.494 33.6516 157.246C42.1622 155.996 43.6801 149.443 43.6801 149.443C43.6801 149.443 43.8858 162.233 53.161 159.999C62.4363 157.764 65.3765 148.135 65.3765 148.135C65.3765 148.135 66.8016 158.922 74.5271 155.035C82.2498 151.151 81.1143 146.827 81.1143 146.827C81.1143 146.827 84.2573 159.851 94.1119 156.74C101.889 154.285 101.522 147.782 101.522 147.782C101.522 147.782 106.67 169.777 117.109 150.091C118.723 152.594 120.05 155.094 120.05 155.094C122.963 161.279 136.058 197.225 135.741 198.239C136.367 196.254 5.8203 203.492 1.03402 203.634C1.03404 203.634 0.629187 146.877 11.9844 136.536Z" fill="#723A48"/>
<path fill-rule="evenodd" clip-rule="evenodd" d="M62.6099 52.2538C62.6099 52.2538 57.3398 40.8755 50.1629 39.1052C42.986 37.3348 51.3424 43.8151 51.3424 43.8151C51.3424 43.8151 39.2275 35.5411 31.468 45.986C23.7085 56.431 26.9991 77.3386 44.4224 80.6871C44.4224 80.6871 37.9317 83.2566 46.2266 82.9304L52.3827 82.0982L65.0215 76.8265C65.0215 76.8265 73.4994 84.4437 83.1716 83.7933C83.1716 83.7933 88.5888 84.9186 85.8807 82.4524C85.8807 82.4524 95.4956 80.8263 99.7331 62.7077C103.636 46.0194 89.2433 37.9511 78.3528 44.2186C78.3528 44.2186 85.948 39.958 82.9765 39.5367C80.0037 39.1151 72.5536 43.9331 69.9358 47.1113C69.9358 47.1113 76.2024 41.5442 74.7162 39.2487C73.2299 36.9548 65.0736 47.3875 62.6099 52.2538Z" fill="#E78E78"/>
<path d="M64.0189 93.8457C73.972 93.8457 82.0406 86.8653 82.0406 78.2545C82.0406 69.6436 73.972 62.6632 64.0189 62.6632C54.0657 62.6632 45.9971 69.6436 45.9971 78.2545C45.9971 86.8653 54.0657 93.8457 64.0189 93.8457Z" fill="#9E5261"/>
<path d="M38.7754 57.7622C38.4721 57.0241 38.356 56.2225 38.4374 55.4288C38.5188 54.635 38.7951 53.8736 39.242 53.2123C39.7231 52.4587 40.3864 51.8384 41.1708 51.4087C41.9551 50.9789 42.8352 50.7534 43.7297 50.7532C44.6243 50.7529 45.5045 50.9778 46.2891 51.4071C47.0737 51.8365 47.7374 52.4564 48.2189 53.2096C48.6666 53.8712 48.9432 54.6332 49.0241 55.4276C49.1049 56.2221 48.9876 57.0242 48.6824 57.7622C48.1819 56.5887 47.4063 55.5526 46.4211 54.7413C45.6683 54.1047 44.7141 53.7551 43.7278 53.7546C42.7416 53.7541 41.787 54.1028 41.0336 54.7387C40.0478 55.5498 39.2731 56.5871 38.7754 57.7622V57.7622Z" fill="#4F2832"/>
<path fill-rule="evenodd" clip-rule="evenodd" d="M115.194 96.8644C115.193 95.4542 114.632 94.1019 113.634 93.1047C112.636 92.1076 111.283 91.5471 109.872 91.5464H32.8742C31.4629 91.5471 30.1095 92.1076 29.1115 93.1047C28.1135 94.1019 27.5525 95.4542 27.5518 96.8644V140.265C27.5525 141.676 28.1135 143.028 29.1115 144.025C30.1095 145.022 31.4629 145.583 32.8742 145.583H109.872C111.283 145.583 112.636 145.022 113.634 144.025C114.632 143.028 115.193 141.676 115.194 140.265V96.8644Z" fill="#EEE7EF"/>
<path d="M67.9542 124.615C71.8591 124.615 75.0246 121.598 75.0246 117.876C75.0246 114.155 71.8591 111.138 67.9542 111.138C64.0493 111.138 60.8838 114.155 60.8838 117.876C60.8838 121.598 64.0493 124.615 67.9542 124.615Z" fill="#705D8B"/>
<path fill-rule="evenodd" clip-rule="evenodd" d="M63.9821 60.1818C63.9821 60.1818 69.3597 62.3589 70.2197 64.857C71.2058 67.7189 67.4238 68.8489 63.9821 68.8489C60.5386 68.8489 57.0588 67.6554 57.7444 64.857C58.3643 62.3188 63.9821 60.1818 63.9821 60.1818Z" fill="#4F2832"/>
<path d="M77.0889 57.7622C76.7856 57.0241 76.6694 56.2225 76.7508 55.4288C76.8322 54.635 77.1086 53.8736 77.5554 53.2123C78.0365 52.4587 78.6999 51.8384 79.4842 51.4087C80.2686 50.9789 81.1487 50.7534 82.0432 50.7532C82.9378 50.7529 83.818 50.9778 84.6026 51.4072C85.3872 51.8365 86.0509 52.4564 86.5324 53.2097C86.9801 53.8712 87.2567 54.6332 87.3375 55.4277C87.4184 56.2221 87.301 57.0242 86.9959 57.7622C86.4954 56.5887 85.7198 55.5526 84.7346 54.7413C83.9818 54.1047 83.0276 53.7551 82.0413 53.7546C81.055 53.7542 80.1005 54.1028 79.3471 54.7387C78.3613 55.5498 77.5865 56.5872 77.0889 57.7622V57.7622Z" fill="#4F2832"/>
<path fill-rule="evenodd" clip-rule="evenodd" d="M103.444 71.2821C103.737 72.4245 104.344 73.4622 105.197 74.2775C105.445 74.4922 105.737 74.6506 106.053 74.7417C106.369 74.8328 106.7 74.8545 107.025 74.8052C107.509 74.7268 107.959 74.5073 108.319 74.1742C108.635 73.8919 108.899 73.5559 109.097 73.1817C109.832 71.6047 110.095 69.8497 109.857 68.1268C109.856 68.0782 109.846 68.0302 109.827 67.9855C109.807 67.9408 109.78 67.9004 109.745 67.8665C109.71 67.8326 109.669 67.8059 109.623 67.7879C109.578 67.77 109.53 67.7611 109.481 67.7619C109.432 67.7626 109.384 67.773 109.34 67.7923C109.295 67.8116 109.255 67.8396 109.221 67.8745C109.187 67.9095 109.16 67.9508 109.143 67.996C109.125 68.0413 109.116 68.0896 109.117 68.1382C109.022 69.6341 108.539 71.0796 107.716 72.3327C107.567 72.552 107.394 72.7549 107.201 72.9379C107.064 73.0874 106.893 73.2034 106.704 73.2769C106.515 73.3252 106.317 73.3264 106.127 73.2802C105.938 73.234 105.762 73.142 105.617 73.0122C104.953 72.4656 104.404 71.7938 104 71.0351C103.967 70.9622 103.906 70.9053 103.831 70.8768C103.756 70.8484 103.673 70.8507 103.599 70.8833C103.526 70.9158 103.469 70.976 103.44 71.0507C103.411 71.1254 103.412 71.2086 103.444 71.2821L103.444 71.2821Z" fill="#693545"/>
<path fill-rule="evenodd" clip-rule="evenodd" d="M19.1584 63.2642C18.4227 64.6311 18.0365 66.1585 18.0342 67.7105C18.0541 68.0939 18.141 68.4708 18.291 68.8242C18.4612 69.2534 18.7602 69.6193 19.1471 69.8716C19.4104 70.0411 19.7091 70.1478 20.0203 70.1836C20.3314 70.2195 20.6466 70.1834 20.9416 70.0781C21.9346 69.6745 22.8033 69.0159 23.4597 68.169C23.5301 68.1018 23.5712 68.0097 23.5742 67.9124C23.5771 67.8152 23.5416 67.7208 23.4754 67.6495C23.4092 67.5782 23.3175 67.5359 23.2203 67.5316C23.1231 67.5273 23.028 67.5614 22.9558 67.6266C22.3587 68.1014 21.6799 68.4635 20.9529 68.695C20.8082 68.7523 20.6514 68.7718 20.4971 68.7518C20.3428 68.7317 20.1961 68.6728 20.071 68.5805C19.9582 68.4643 19.8741 68.3233 19.8254 68.169C19.7345 67.9517 19.6642 67.7263 19.6155 67.4959C19.363 66.1611 19.4022 64.7875 19.7302 63.4692C19.7436 63.4317 19.7496 63.3919 19.7477 63.3521C19.7457 63.3123 19.736 63.2732 19.719 63.2372C19.7019 63.2012 19.678 63.1688 19.6484 63.142C19.6189 63.1152 19.5844 63.0945 19.5468 63.0811C19.5093 63.0676 19.4695 63.0617 19.4296 63.0636C19.3898 63.0655 19.3507 63.0753 19.3146 63.0923C19.2786 63.1093 19.2462 63.1332 19.2194 63.1627C19.1926 63.1922 19.1718 63.2267 19.1584 63.2642V63.2642Z" fill="#693545"/>
<path fill-rule="evenodd" clip-rule="evenodd" d="M114.451 69.1532C115.165 70.8253 116.139 72.6522 116.943 74.4888C117.2 75.0747 117.43 75.6589 117.644 76.2351C117.871 76.7966 118.055 77.3744 118.194 77.9636C118.475 79.0804 118.454 79.8793 117.979 80.2973C117.463 80.7524 116.594 80.7444 115.472 80.3377C115.382 80.2986 115.281 80.2966 115.19 80.3321C115.098 80.3676 115.025 80.4377 114.986 80.5271C114.946 80.6166 114.944 80.718 114.979 80.8092C115.014 80.9004 115.084 80.974 115.173 81.0139C116.659 81.7983 117.895 81.7692 118.699 81.2286C119.529 80.6717 119.961 79.4823 119.744 77.678C119.649 77.0493 119.493 76.4315 119.277 75.8332C119.132 75.4457 118.963 75.0673 118.772 74.7002C117.702 72.6345 116.113 70.6978 114.99 68.874C114.953 68.8025 114.889 68.7487 114.813 68.7243C114.736 68.7 114.653 68.7071 114.581 68.7441C114.51 68.7811 114.456 68.845 114.431 68.9218C114.407 68.9985 114.414 69.0817 114.451 69.1532L114.451 69.1532Z" fill="#693545"/>
<path fill-rule="evenodd" clip-rule="evenodd" d="M101.205 86.8143C101.33 86.7837 101.104 86.4916 101.089 86.3915C101.069 86.2264 101.1 86.0591 101.178 85.9122C101.225 85.8184 101.292 85.7357 101.373 85.6695C101.455 85.6033 101.55 85.5551 101.651 85.5281C101.751 85.498 101.856 85.4886 101.96 85.5002C102.064 85.5118 102.164 85.5444 102.255 85.5959C102.788 85.8929 103.267 86.2757 103.675 86.7288C103.984 87.0763 104.324 87.394 104.693 87.6778C104.861 87.8034 105.06 87.8802 105.269 87.8996C105.478 87.9189 105.688 87.8802 105.876 87.7876C106.096 87.6873 106.29 87.5401 106.446 87.3562C106.602 87.1724 106.715 86.9565 106.778 86.724C106.97 86.1342 107.059 85.5155 107.039 84.8954L106.973 83.6349C106.962 83.4767 106.854 83.1507 106.836 82.9926C106.819 82.8805 106.826 82.7663 106.855 82.6569C106.885 82.5543 106.939 82.4607 107.014 82.3845C107.089 82.3084 107.182 82.2522 107.284 82.221C107.386 82.1899 107.494 82.1848 107.599 82.2063C107.703 82.2277 107.801 82.275 107.883 82.3438C108.717 83.1574 109.712 83.7875 110.805 84.1934C111.148 84.2867 111.508 84.3038 111.859 84.2432C112.209 84.1827 112.543 84.0461 112.835 83.8431C112.915 83.7862 113.014 83.7634 113.111 83.7797C113.208 83.7961 113.295 83.8502 113.352 83.9303C113.409 84.0103 113.432 84.1097 113.415 84.2065C113.399 84.3034 113.345 84.3898 113.265 84.4467C112.896 84.7418 112.468 84.9527 112.01 85.0648C111.551 85.1769 111.074 85.1874 110.611 85.0955C109.796 84.916 109.023 84.5836 108.333 84.1159L108.424 84.8211C108.527 85.7878 108.404 86.7654 108.063 87.6761C107.776 88.3937 107.224 88.9737 106.521 89.2965C106.188 89.4611 105.824 89.5543 105.453 89.5701C105.081 89.586 104.711 89.5241 104.365 89.3886C103.726 89.0837 103.164 88.6391 102.72 88.0877C102.718 88.73 102.561 89.3622 102.262 89.9308C101.987 90.4214 101.53 90.7835 100.989 90.9379C100.494 91.095 99.961 91.0892 99.4693 90.9213C98.9776 90.7534 98.5528 90.4322 98.2575 90.0051C97.5372 88.9325 97.0132 87.7407 96.7101 86.4851C96.697 86.4474 96.6915 86.4076 96.6939 86.3678C96.6963 86.328 96.7065 86.2891 96.724 86.2533C96.7414 86.2174 96.7658 86.1854 96.7957 86.159C96.8255 86.1326 96.8603 86.1123 96.898 86.0994C96.9358 86.0864 96.9757 86.081 97.0155 86.0835C97.0553 86.086 97.0942 86.0963 97.13 86.1139C97.1658 86.1314 97.1978 86.1559 97.2242 86.1858C97.2505 86.2157 97.2707 86.2505 97.2835 86.2882C97.644 87.4184 98.206 88.4742 98.9424 89.4046C99.1363 89.6517 99.4049 89.8295 99.7081 89.9118C100.011 89.9941 100.333 89.9764 100.625 89.8614C100.777 89.797 100.912 89.698 101.019 89.5721C101.125 89.4462 101.201 89.2971 101.239 89.1368C101.344 88.7254 101.373 88.2982 101.325 87.8763L101.205 86.8143ZM101.205 86.8143C101.192 86.8176 101.202 86.7885 101.201 86.7789L101.205 86.8143ZM102.628 86.4674C102.712 86.3124 102.754 86.164 102.596 86.1962C102.51 86.2124 102.573 86.3463 102.628 86.4674Z" fill="#693545"/>
<path fill-rule="evenodd" clip-rule="evenodd" d="M20.8826 82.2308C20.6225 82.439 20.3577 82.6423 20.0863 82.8328C19.4846 83.2697 18.8245 83.6202 18.1254 83.8738C16.6911 84.3644 15.7332 84.0803 15.2035 83.4267C14.9343 83.0201 14.7627 82.5569 14.7022 82.0731C14.6417 81.5893 14.6938 81.0982 14.8546 80.6378L15.4554 78.6867C15.6541 78.1637 15.8738 77.6586 16.1112 77.1631C16.3471 76.6692 16.5991 76.1851 16.8688 75.6993C16.9056 75.6278 16.9694 75.5739 17.046 75.5493C17.1227 75.5248 17.2059 75.5317 17.2774 75.5686C17.349 75.6054 17.4029 75.6691 17.4275 75.7457C17.452 75.8222 17.4451 75.9054 17.4082 75.9769C17.1757 76.4659 16.9576 76.9517 16.7606 77.4471C16.5635 77.9378 16.389 78.4364 16.234 78.9513L15.7947 80.8428C15.7003 81.1486 15.6758 81.4716 15.7231 81.7881C15.7703 82.1046 15.8881 82.4064 16.0677 82.6714C16.3761 82.999 16.9043 82.9554 17.6505 82.6358C18.2132 82.3849 18.7387 82.0579 19.2124 81.6643C20.0055 81.0349 20.7259 80.3054 21.519 79.6695C21.6182 79.5895 21.7343 79.5331 21.8586 79.5047C21.9828 79.4762 22.1119 79.4765 22.236 79.5055C22.3602 79.5344 22.4761 79.5913 22.5749 79.6717C22.6737 79.7521 22.7529 79.854 22.8063 79.9697C22.8699 80.1137 22.8971 80.2711 22.8855 80.4281C22.8774 80.5765 22.787 80.8864 22.7692 81.0349L22.5689 82.2905C22.3377 83.1187 22.2065 83.9715 22.1781 84.8308C22.1941 85.1794 22.2313 85.5216 22.556 85.6604C22.9496 85.7931 23.3791 85.77 23.7561 85.5958C24.5263 85.2768 25.2461 84.8479 25.8931 84.3224L26.8654 83.4767C26.9704 83.3767 27.1384 83.1152 27.2417 83.0184C27.3328 82.9288 27.4459 82.8648 27.5696 82.8328C27.6556 82.8101 27.7456 82.8075 27.8327 82.8251C27.9198 82.8427 28.0016 82.8801 28.072 82.9344C28.1444 82.9856 28.2045 83.0523 28.2478 83.1296C28.2911 83.207 28.3166 83.293 28.3224 83.3815C28.4209 84.6048 28.0122 86.1558 28.3788 87.2145C28.5792 87.7939 29.0702 88.157 30.1055 88.1796C30.2037 88.179 30.2981 88.2173 30.368 88.2861C30.438 88.355 30.4777 88.4487 30.4786 88.5468C30.4795 88.6449 30.4413 88.7393 30.3726 88.8094C30.3039 88.8794 30.2101 88.9193 30.112 88.9204C28.5824 88.9801 27.8846 88.3717 27.5357 87.5357C27.277 86.6483 27.1786 85.722 27.245 84.8001L26.7071 85.3311C25.9844 85.9849 25.1711 86.5312 24.2924 86.9531C23.5685 87.2999 22.7384 87.3531 21.9762 87.1016C21.6383 86.9744 21.3384 86.7633 21.1047 86.4883C20.871 86.2133 20.7112 85.8834 20.6404 85.5296C20.4989 84.4249 20.5813 83.3031 20.8826 82.2308V82.2308Z" fill="#693545"/>
<path fill-rule="evenodd" clip-rule="evenodd" d="M67.0807 10.761C67.0031 12.6558 66.8206 14.5311 66.6542 16.4275C66.5832 17.2344 66.4992 18.0398 66.4572 18.8483C66.4168 19.6602 66.4168 20.4703 66.4104 21.2821C66.3942 23.1914 66.4216 25.0862 66.4233 26.989C66.4171 27.0869 66.45 27.1832 66.5149 27.2569C66.5797 27.3305 66.6711 27.3755 66.769 27.3819C66.867 27.3883 66.9635 27.3556 67.0374 27.291C67.1112 27.2265 67.1564 27.1352 67.1631 27.0374C67.4166 25.1491 67.709 23.2721 67.9189 21.3709C68.0078 20.5575 68.0966 19.7441 68.1322 18.9274C68.1661 18.1076 68.1451 17.2877 68.1209 16.4695C68.0627 14.5457 67.898 12.6461 67.6864 10.7401C67.685 10.7003 67.6758 10.6612 67.6593 10.6251C67.6428 10.5889 67.6193 10.5563 67.5902 10.5292C67.5611 10.502 67.527 10.4809 67.4897 10.467C67.4524 10.453 67.4128 10.4466 67.373 10.4479C67.3333 10.4493 67.2941 10.4585 67.2579 10.475C67.2217 10.4915 67.1891 10.5149 67.1619 10.544C67.1348 10.5731 67.1136 10.6072 67.0997 10.6444C67.0858 10.6817 67.0793 10.7213 67.0807 10.761V10.761Z" fill="#693545"/>
<path fill-rule="evenodd" clip-rule="evenodd" d="M77.9407 32.9039C78.6783 32.1947 79.4571 31.5297 80.2731 30.9123C80.6155 30.646 80.9628 30.4023 81.2988 30.1376C81.5217 29.9633 81.7381 29.781 81.9529 29.5954C82.4585 29.1613 82.9415 28.7142 83.4874 28.301C83.9639 27.9395 84.4485 27.5893 84.9799 27.252C85.0685 27.2096 85.1367 27.1337 85.1693 27.0411C85.202 26.9485 85.1966 26.8467 85.1542 26.7581C85.1117 26.6696 85.0359 26.6014 84.9432 26.5687C84.8505 26.536 84.7487 26.5415 84.66 26.5838C83.5932 26.9306 82.5627 27.3803 81.583 27.9266C81.1577 28.1611 80.754 28.4328 80.3765 28.7384C80.0094 29.0554 79.6696 29.4025 79.3605 29.7762C78.6488 30.6375 78.0137 31.5593 77.4626 32.5311C77.4381 32.5625 77.42 32.5983 77.4094 32.6367C77.3988 32.675 77.3958 32.7151 77.4007 32.7546C77.4056 32.7941 77.4182 32.8322 77.4378 32.8668C77.4575 32.9015 77.4837 32.9319 77.5151 32.9564C77.5465 32.9808 77.5824 32.9989 77.6208 33.0095C77.6592 33.0201 77.6993 33.0231 77.7388 33.0182C77.7783 33.0133 77.8165 33.0007 77.8511 32.9811C77.8858 32.9615 77.9162 32.9353 77.9407 32.9039V32.9039Z" fill="#693545"/>
<path fill-rule="evenodd" clip-rule="evenodd" d="M69.3848 34.3128C70.8133 31.5039 72.6992 28.952 74.9655 26.7613C75.4629 26.2626 75.9733 25.7768 76.4853 25.2894C76.9973 24.8036 77.5137 24.3205 78.0344 23.8401C80.4636 21.5968 83.0658 19.4922 85.7422 17.436C85.782 17.4082 85.816 17.3728 85.8421 17.3318C85.8682 17.2908 85.886 17.2451 85.8945 17.1973C85.9029 17.1495 85.9018 17.1004 85.8913 17.053C85.8807 17.0056 85.861 16.9607 85.833 16.9209C85.8051 16.8812 85.7696 16.8473 85.7286 16.8212C85.6876 16.7952 85.6418 16.7774 85.5939 16.7691C85.546 16.7607 85.497 16.7619 85.4495 16.7724C85.4021 16.783 85.3572 16.8029 85.3174 16.8308C82.9172 18.3544 80.525 19.8618 78.3041 21.5612C77.3276 22.2943 76.3926 23.081 75.5033 23.9175C72.5608 26.7733 70.2819 30.2399 68.8276 34.0723C68.8118 34.1088 68.8034 34.1481 68.8028 34.188C68.8022 34.2278 68.8094 34.2673 68.8241 34.3043C68.8388 34.3414 68.8607 34.3751 68.8884 34.4037C68.9162 34.4323 68.9493 34.4551 68.9859 34.4709C69.0225 34.4867 69.0618 34.4951 69.1016 34.4957C69.1415 34.4963 69.1811 34.4891 69.2181 34.4744C69.2552 34.4597 69.289 34.4379 69.3176 34.4102C69.3462 34.3824 69.369 34.3494 69.3848 34.3128L69.3848 34.3128Z" fill="#693545"/>
<path fill-rule="evenodd" clip-rule="evenodd" d="M46.6674 30.6541C46.7854 31.1383 46.8177 31.3755 46.908 31.6369C46.9431 31.7691 46.9999 31.8945 47.076 32.0081C47.1663 32.1105 47.2733 32.1967 47.3926 32.2631C47.6156 32.4068 47.8417 32.4955 48.2762 32.7199C48.3392 32.7945 48.4291 32.8412 48.5264 32.8498C48.6237 32.8584 48.7205 32.8281 48.7956 32.7657C48.8707 32.7032 48.918 32.6136 48.9272 32.5165C48.9364 32.4193 48.9068 32.3224 48.8447 32.247C48.701 31.7806 48.6574 31.545 48.5556 31.2997C48.5148 31.1739 48.4537 31.0555 48.3747 30.9494C48.2795 30.8536 48.1693 30.774 48.0484 30.7138C47.8126 30.5718 47.5865 30.4911 47.1391 30.2732C47.0884 30.211 47.0151 30.1713 46.9353 30.163C46.8555 30.1547 46.7756 30.1783 46.7132 30.2287C46.6508 30.2792 46.6109 30.3522 46.6023 30.432C46.5937 30.5117 46.6172 30.5916 46.6674 30.6541V30.6541Z" fill="#693545"/>
<path fill-rule="evenodd" clip-rule="evenodd" d="M50.4564 25.475C50.7536 26.1529 51.0055 26.8033 51.3303 27.4666C51.4572 27.7455 51.6035 28.0151 51.768 28.2736C51.9468 28.5204 52.1428 28.7545 52.3543 28.974C52.8469 29.5147 53.3606 29.9875 53.8678 30.5137C53.8947 30.5542 53.9293 30.5891 53.9696 30.6162C54.01 30.6433 54.0553 30.6623 54.103 30.6719C54.1507 30.6815 54.1999 30.6816 54.2476 30.6722C54.2953 30.6628 54.3408 30.6441 54.3812 30.6171C54.4217 30.5901 54.4565 30.5554 54.4835 30.515C54.5106 30.4746 54.5294 30.4292 54.5388 30.3816C54.5483 30.3339 54.5483 30.2848 54.5387 30.2371C54.5292 30.1894 54.5103 30.1441 54.4832 30.1037C54.1908 29.4275 53.9324 28.7738 53.598 28.1154C53.4666 27.8375 53.3143 27.5699 53.1425 27.3149C52.9561 27.0701 52.752 26.8393 52.532 26.6241C52.0183 26.0932 51.4901 25.6364 50.9523 25.1265C50.9294 25.0937 50.9004 25.0658 50.8667 25.0443C50.8331 25.0229 50.7955 25.0082 50.7562 25.0013C50.7169 24.9944 50.6766 24.9953 50.6376 25.004C50.5986 25.0126 50.5618 25.0289 50.5291 25.0519C50.4965 25.0748 50.4687 25.104 50.4473 25.1377C50.426 25.1714 50.4115 25.209 50.4048 25.2483C50.398 25.2877 50.3991 25.3279 50.408 25.3668C50.4168 25.4057 50.4333 25.4425 50.4564 25.475V25.475Z" fill="#693545"/>
<path fill-rule="evenodd" clip-rule="evenodd" d="M51.3749 17.7121C53.1897 20.0348 54.7453 22.5486 56.0139 25.2087C56.3046 25.801 56.5857 26.3965 56.8699 26.9921C57.1542 27.5877 57.4385 28.1832 57.7211 28.7802C59.0564 31.5837 60.2114 34.4693 61.1793 37.4196C61.1921 37.4665 61.2139 37.5105 61.2437 37.549C61.2735 37.5875 61.3105 37.6198 61.3528 37.6439C61.3951 37.6681 61.4417 37.6837 61.49 37.6898C61.5383 37.6959 61.5873 37.6925 61.6343 37.6796C61.6813 37.6668 61.7252 37.6448 61.7637 37.615C61.8021 37.5851 61.8343 37.548 61.8584 37.5057C61.8824 37.4634 61.8979 37.4167 61.9039 37.3684C61.9099 37.3202 61.9063 37.2712 61.8933 37.2243C61.3483 34.6461 60.6389 32.1055 59.7693 29.6178C59.3927 28.5457 58.9598 27.4941 58.4722 26.4676C57.9692 25.4458 57.4078 24.4538 56.7908 23.4964C55.3667 21.2598 53.7029 19.1849 51.8288 17.3086C51.8025 17.2787 51.7705 17.2543 51.7347 17.2369C51.6989 17.2194 51.66 17.2091 51.6202 17.2067C51.5804 17.2043 51.5405 17.2098 51.5029 17.2229C51.4652 17.2359 51.4305 17.2563 51.4008 17.2828C51.3407 17.3365 51.3042 17.4117 51.2994 17.4921C51.2945 17.5725 51.3217 17.6516 51.3749 17.7121Z" fill="#693545"/>
<path fill-rule="evenodd" clip-rule="evenodd" d="M61.2765 136.651C65.9512 127.285 63.7184 123.827 60.2817 125.3C60.2117 125.328 64.1935 119.633 60.5868 119.956C52.2382 120.704 26.5961 125.126 16.4079 95.7023C13.3366 86.8318 10.1354 89.846 9.29456 92.4111C8.21436 95.6629 7.43841 99.0078 6.97668 102.403C6.72315 103.676 6.49854 104.965 6.30285 106.269C6.06395 107.889 5.92153 109.522 5.87632 111.158C5.85362 111.96 5.88874 112.759 5.92621 113.564C5.93349 113.699 5.92771 114.015 5.94484 114.121C5.96586 114.26 6.00742 114.396 6.06817 114.523C6.13199 114.704 6.24604 114.864 6.39707 114.983C6.54811 115.103 6.72994 115.177 6.92145 115.197C7.01952 116.039 7.13557 116.884 7.26962 117.734C7.26238 120.413 7.50033 123.088 7.9805 125.724C8.21863 127.12 8.4914 128.536 8.82821 129.91C8.95647 130.435 9.10766 130.95 9.24318 131.472C9.28665 131.642 9.34747 132.051 9.39285 132.182C9.4378 132.313 9.50094 132.438 9.58043 132.551C9.68924 132.761 9.87571 132.921 10.1003 132.996C10.3249 133.071 10.5699 133.056 10.7834 132.954C10.8078 132.943 10.8382 132.928 10.8703 132.911C11.7539 136.396 13.1709 139.724 15.0712 142.777C15.7862 143.97 16.6147 145.091 17.5452 146.124C17.9901 146.677 18.494 147.179 19.0481 147.622C19.1993 147.731 19.3814 147.789 19.5678 147.788C19.7542 147.786 19.9353 147.725 20.0849 147.614C20.2109 147.525 20.3154 147.409 20.3909 147.275C20.4664 147.141 20.5109 146.991 20.5213 146.838C20.5762 146.076 20.4424 145.312 20.1318 144.614C23.4439 147.108 27.1265 149.068 31.0456 150.423C36.1334 152.294 45.7282 152.159 48.6808 151.549C52.1592 150.828 58.3889 149.964 65.4233 138.503C67.0231 135.897 61.2196 136.766 61.2765 136.651Z" fill="url(#paint2_linear_2_459)"/>
<path fill-rule="evenodd" clip-rule="evenodd" d="M61.9075 47.1238L56.6035 37.0057C56.6035 37.0057 62.4881 39.371 61.9075 47.1238Z" fill="#E78E78"/>
<path style="mix-blend-mode:multiply" opacity="0.37" d="M27.552 113.003C23.6523 108.829 21.4611 103.345 21.4111 97.6349L27.552 102.112V113.003Z" fill="url(#paint3_linear_2_459)"/>
<path fill-rule="evenodd" clip-rule="evenodd" d="M45.4443 78.6866C45.4443 78.6866 54.2014 77.4826 63.8948 76.5943C70.0181 76.0619 76.1713 75.963 82.3086 76.2981C82.3086 76.2981 75.846 83.377 64.0186 83.5386C51.5938 83.7083 45.4443 78.6866 45.4443 78.6866Z" fill="#4F2832"/>
<path fill-rule="evenodd" clip-rule="evenodd" d="M54.4952 76.9744L51.0225 81.8404L56.4028 82.9588L54.4952 76.9744Z" fill="#FFFDF0"/>
<path fill-rule="evenodd" clip-rule="evenodd" d="M72.2457 76.0266L71.957 81.9961L77.0884 80.0306L72.2457 76.0266Z" fill="#FFFDF0"/>
<path fill-rule="evenodd" clip-rule="evenodd" d="M45.7381 79.434C49.0024 80.8558 52.6997 83.488 56.216 83.7462C61.5589 84.1435 66.9311 83.803 72.1809 82.7342C75.5115 82.0645 79.1812 78.8804 82.121 77.0793C82.1847 77.0403 82.2402 76.9892 82.2842 76.9288C82.3281 76.8685 82.3598 76.8 82.3772 76.7274C82.3947 76.6548 82.3977 76.5795 82.386 76.5057C82.3743 76.432 82.3482 76.3613 82.3091 76.2976C82.27 76.234 82.2188 76.1787 82.1583 76.1348C82.0978 76.091 82.0293 76.0595 81.9566 76.0421C81.8839 76.0248 81.8085 76.0219 81.7347 76.0337C81.6609 76.0455 81.5902 76.0718 81.5266 76.1109C78.6983 77.8426 75.161 80.9768 71.9564 81.6207C66.808 82.6684 61.5397 83.0024 56.3 82.6132C52.9081 82.3647 49.34 79.7633 46.1919 78.393C46.0539 78.3335 45.8978 78.331 45.7579 78.3862C45.6181 78.4414 45.5058 78.5497 45.4457 78.6875C45.3857 78.8253 45.3827 78.9812 45.4375 79.1211C45.4923 79.2611 45.6004 79.3736 45.7381 79.434H45.7381Z" fill="#4F2832"/>
</g>
<defs>
<linearGradient id="paint0_linear_2_459" x1="136.104" y1="53.9389" x2="196.06" y2="73.6825" gradientUnits="userSpaceOnUse">
<stop stop-color="#D47877"/>
<stop offset="1" stop-color="#B36162"/>
</linearGradient>
<linearGradient id="paint1_linear_2_459" x1="58.9178" y1="20.4039" x2="65.2268" y2="168.66" gradientUnits="userSpaceOnUse">
<stop stop-color="#D16C6D"/>
<stop offset="1" stop-color="#B36162"/>
</linearGradient>
<linearGradient id="paint2_linear_2_459" x1="3093.43" y1="1841.57" x2="3636.91" y2="14119.3" gradientUnits="userSpaceOnUse">
<stop stop-color="#D16C6D"/>
<stop offset="1" stop-color="#B36162"/>
</linearGradient>
<linearGradient id="paint3_linear_2_459" x1="280.251" y1="2038.73" x2="324.091" y2="2450.05" gradientUnits="userSpaceOnUse">
<stop stop-color="#D16C6D"/>
<stop offset="1" stop-color="#B36162"/>
</linearGradient>
</defs>
</svg>
